<svg id="SvgjsSvg1001" width="1455.5" height="502.140625" xmlns="http://www.w3.org/2000/svg" version="1.1" xmlns:xlink="http://www.w3.org/1999/xlink" xmlns:svgjs="http://svgjs.com/svgjs"><defs id="SvgjsDefs1002"><marker id="SvgjsMarker1034" markerWidth="12" markerHeight="8" refX="9" refY="4" viewBox="0 0 12 8" orient="auto" markerUnits="userSpaceOnUse" stroke-dasharray="0,0"><path id="SvgjsPath1035" d="M0,0 L12,4 L0,8 L0,0" fill="#323232" stroke="#323232" stroke-width="1"></path></marker><marker id="SvgjsMarker1038" markerWidth="12" markerHeight="8" refX="9" refY="4" viewBox="0 0 12 8" orient="auto" markerUnits="userSpaceOnUse" stroke-dasharray="0,0"><path id="SvgjsPath1039" d="M0,0 L12,4 L0,8 L0,0" fill="#323232" stroke="#323232" stroke-width="1"></path></marker><marker id="SvgjsMarker1042" markerWidth="12" markerHeight="8" refX="9" refY="4" viewBox="0 0 12 8" orient="auto" markerUnits="userSpaceOnUse" stroke-dasharray="0,0"><path id="SvgjsPath1043" d="M0,0 L12,4 L0,8 L0,0" fill="#323232" stroke="#323232" stroke-width="1"></path></marker><marker id="SvgjsMarker1052" markerWidth="12" markerHeight="8" refX="9" refY="4" viewBox="0 0 12 8" orient="auto" markerUnits="userSpaceOnUse" stroke-dasharray="0,0"><path id="SvgjsPath1053" d="M0,0 L12,4 L0,8 L0,0" fill="#323232" stroke="#323232" stroke-width="1"></path></marker><marker id="SvgjsMarker1068" markerWidth="12" markerHeight="8" refX="9" refY="4" viewBox="0 0 12 8" orient="auto" markerUnits="userSpaceOnUse" stroke-dasharray="0,0"><path id="SvgjsPath1069" d="M0,0 L12,4 L0,8 L0,0" fill="#323232" stroke="#323232" stroke-width="1"></path></marker><marker id="SvgjsMarker1090" markerWidth="12" markerHeight="8" refX="9" refY="4" viewBox="0 0 12 8" orient="auto" markerUnits="userSpaceOnUse" stroke-dasharray="0,0"><path id="SvgjsPath1091" d="M0,0 L12,4 L0,8 L0,0" fill="#323232" stroke="#323232" stroke-width="1"></path></marker><marker id="SvgjsMarker1094" markerWidth="12" markerHeight="8" refX="9" refY="4" viewBox="0 0 12 8" orient="auto" markerUnits="userSpaceOnUse" stroke-dasharray="0,0"><path id="SvgjsPath1095" d="M0,0 L12,4 L0,8 L0,0" fill="#323232" stroke="#323232" stroke-width="1"></path></marker><marker id="SvgjsMarker1098" markerWidth="12" markerHeight="8" refX="9" refY="4" viewBox="0 0 12 8" orient="auto" markerUnits="userSpaceOnUse" stroke-dasharray="0,0"><path id="SvgjsPath1099" d="M0,0 L12,4 L0,8 L0,0" fill="#323232" stroke="#323232" stroke-width="1"></path></marker><marker id="SvgjsMarker1102" markerWidth="12" markerHeight="8" refX="9" refY="4" viewBox="0 0 12 8" orient="auto" markerUnits="userSpaceOnUse" stroke-dasharray="0,0"><path id="SvgjsPath1103" d="M0,0 L12,4 L0,8 L0,0" fill="#323232" stroke="#323232" stroke-width="1"></path></marker><marker id="SvgjsMarker1106" markerWidth="12" markerHeight="8" refX="9" refY="4" viewBox="0 0 12 8" orient="auto" markerUnits="userSpaceOnUse" stroke-dasharray="0,0"><path id="SvgjsPath1107" d="M0,0 L12,4 L0,8 L0,0" fill="#323232" stroke="#323232" stroke-width="1"></path></marker><marker id="SvgjsMarker1116" markerWidth="12" markerHeight="8" refX="9" refY="4" viewBox="0 0 12 8" orient="auto" markerUnits="userSpaceOnUse" stroke-dasharray="0,0"><path id="SvgjsPath1117" d="M0,0 L12,4 L0,8 L0,0" fill="#323232" stroke="#323232" stroke-width="1"></path></marker></defs><g id="SvgjsG1008" transform="translate(543.5,25)"><path id="SvgjsPath1009" d="M 0 0L 217 0L 217 51L 0 51Z" stroke="rgba(33,41,48,1)" stroke-width="1" fill-opacity="1" fill="#ffffff"></path><g id="SvgjsG1010"><text id="SvgjsText1011" font-family="微软雅黑" text-anchor="middle" font-size="13px" width="197px" fill="#323232" font-weight="700" align="middle" lineHeight="125%" anchor="middle" family="微软雅黑" size="13px" weight="700" font-style="" opacity="1" y="14.875" transform="rotate(0)"><tspan id="SvgjsTspan1012" dy="16" x="108.5"><tspan id="SvgjsTspan1013" style="text-decoration:;">BootstrapClassLoader</tspan></tspan></text></g></g><g id="SvgjsG1014" transform="translate(543.5,119)"><path id="SvgjsPath1015" d="M 0 0L 217 0L 217 51L 0 51Z" stroke="rgba(33,41,48,1)" stroke-width="1" fill-opacity="1" fill="#ffffff"></path><g id="SvgjsG1016"><text id="SvgjsText1017" font-family="微软雅黑" text-anchor="middle" font-size="13px" width="197px" fill="#323232" font-weight="700" align="middle" lineHeight="125%" anchor="middle" family="微软雅黑" size="13px" weight="700" font-style="" opacity="1" y="14.875" transform="rotate(0)"><tspan id="SvgjsTspan1018" dy="16" x="108.5"><tspan id="SvgjsTspan1019" style="text-decoration:;">ExtClassLoader</tspan></tspan></text></g></g><g id="SvgjsG1020" transform="translate(150,246)"><path id="SvgjsPath1021" d="M 0 0L 190 0L 190 48L 0 48Z" stroke="rgba(33,41,48,1)" stroke-width="1" fill-opacity="1" fill="#ffffff"></path><g id="SvgjsG1022"><text id="SvgjsText1023" font-family="微软雅黑" text-anchor="middle" font-size="13px" width="170px" fill="#323232" font-weight="700" align="middle" lineHeight="125%" anchor="middle" family="微软雅黑" size="13px" weight="700" font-style="" opacity="1" y="13.375" transform="rotate(0)"><tspan id="SvgjsTspan1024" dy="16" x="95"><tspan id="SvgjsTspan1025" style="text-decoration:;">ApplicationClassLoader</tspan></tspan></text></g></g><g id="SvgjsG1026" transform="translate(950,246)"><path id="SvgjsPath1027" d="M 0 0L 190 0L 190 48L 0 48Z" stroke="rgba(33,41,48,1)" stroke-width="1" fill-opacity="1" fill="#ffffff"></path><g id="SvgjsG1028"><text id="SvgjsText1029" font-family="微软雅黑" text-anchor="middle" font-size="13px" width="170px" fill="#323232" font-weight="700" align="middle" lineHeight="125%" anchor="middle" family="微软雅黑" size="13px" weight="700" font-style="" opacity="1" y="13.375" transform="rotate(0)"><tspan id="SvgjsTspan1030" dy="16" x="95"><tspan id="SvgjsTspan1031" style="text-decoration:;">ProfilerAgentClassLoader</tspan></tspan></text></g></g><g id="SvgjsG1032"><path id="SvgjsPath1033" d="M652 76.5L652 97.5L652 97.5L652 117.19999999999999" stroke="#323232" stroke-width="1" fill="none" marker-end="url(#SvgjsMarker1034)"></path></g><g id="SvgjsG1036"><path id="SvgjsPath1037" d="M652 170.5L652 208L245 208L245 244.2" stroke="#323232" stroke-width="1" fill="none" marker-end="url(#SvgjsMarker1038)"></path></g><g id="SvgjsG1040"><path id="SvgjsPath1041" d="M652 170.5L652 208L1045 208L1045 244.2" stroke="#323232" stroke-width="1" fill="none" marker-end="url(#SvgjsMarker1042)"></path></g><g id="SvgjsG1044" transform="translate(25,370)"><path id="SvgjsPath1045" d="M 0 0L 125 0L 125 41L 0 41Z" stroke="rgba(33,41,48,1)" stroke-width="1" fill-opacity="1" fill="#ffffff"></path><g id="SvgjsG1046"><text id="SvgjsText1047" font-family="微软雅黑" text-anchor="middle" font-size="13px" width="105px" fill="#323232" font-weight="400" align="middle" lineHeight="125%" anchor="middle" family="微软雅黑" size="13px" weight="400" font-style="" opacity="1" y="9.875" transform="rotate(0)"><tspan id="SvgjsTspan1048" dy="16" x="62.5"><tspan id="SvgjsTspan1049" style="text-decoration:;">application.jar</tspan></tspan></text></g></g><g id="SvgjsG1050"><path id="SvgjsPath1051" d="M245 294.5L245 332L87.5 332L87.5 368.20000000000005" stroke-dasharray="8,5" stroke="#323232" stroke-width="1" fill="none" marker-end="url(#SvgjsMarker1052)"></path></g><g id="SvgjsG1054" transform="translate(319.5,370)"><path id="SvgjsPath1055" d="M 0 0L 166.5 0L 166.5 41L 0 41Z" stroke="rgba(33,41,48,1)" stroke-width="1" fill-opacity="1" fill="#ffffff"></path><g id="SvgjsG1056"><text id="SvgjsText1057" font-family="微软雅黑" text-anchor="middle" font-size="13px" width="147px" fill="#323232" font-weight="400" align="middle" lineHeight="125%" anchor="middle" family="微软雅黑" size="13px" weight="400" font-style="" opacity="1" y="9.875" transform="rotate(0)"><tspan id="SvgjsTspan1058" dy="16" x="83.5"><tspan id="SvgjsTspan1059" style="text-decoration:;">spring-profiler-agent.jar</tspan></tspan></text></g></g><g id="SvgjsG1060" transform="translate(695.5,370)"><path id="SvgjsPath1061" d="M 0 0L 166.5 0L 166.5 41L 0 41Z" stroke="rgba(33,41,48,1)" stroke-width="1" fill-opacity="1" fill="#ffffff"></path><g id="SvgjsG1062"><text id="SvgjsText1063" font-family="微软雅黑" text-anchor="middle" font-size="13px" width="147px" fill="#323232" font-weight="400" align="middle" lineHeight="125%" anchor="middle" family="微软雅黑" size="13px" weight="400" font-style="" opacity="1" y="9.875" transform="rotate(0)"><tspan id="SvgjsTspan1064" dy="16" x="83.5"><tspan id="SvgjsTspan1065" style="text-decoration:;">spring-profiler-core.jar</tspan></tspan></text></g></g><g id="SvgjsG1066"><path id="SvgjsPath1067" d="M245 294.5L245 332L402.75 332L402.75 368.20000000000005" stroke-dasharray="8,5" stroke="#323232" stroke-width="1" fill="none" marker-end="url(#SvgjsMarker1068)"></path></g><g id="SvgjsG1070" transform="translate(875.5,370)"><path id="SvgjsPath1071" d="M 0 0L 166.5 0L 166.5 41L 0 41Z" stroke="rgba(33,41,48,1)" stroke-width="1" fill-opacity="1" fill="#ffffff"></path><g id="SvgjsG1072"><text id="SvgjsText1073" font-family="微软雅黑" text-anchor="middle" font-size="13px" width="147px" fill="#323232" font-weight="400" align="middle" lineHeight="125%" anchor="middle" family="微软雅黑" size="13px" weight="400" font-style="" opacity="1" y="9.875" transform="rotate(0)"><tspan id="SvgjsTspan1074" dy="16" x="83.5"><tspan id="SvgjsTspan1075" style="text-decoration:;">spring-profiler-api.jar</tspan></tspan></text></g></g><g id="SvgjsG1076" transform="translate(1055.5,370)"><path id="SvgjsPath1077" d="M 0 0L 176.5 0L 176.5 41L 0 41Z" stroke="rgba(33,41,48,1)" stroke-width="1" fill-opacity="1" fill="#ffffff"></path><g id="SvgjsG1078"><text id="SvgjsText1079" font-family="微软雅黑" text-anchor="middle" font-size="13px" width="157px" fill="#323232" font-weight="400" align="middle" lineHeight="125%" anchor="middle" family="微软雅黑" size="13px" weight="400" font-style="" opacity="1" y="9.875" transform="rotate(0)"><tspan id="SvgjsTspan1080" dy="16" x="88.5"><tspan id="SvgjsTspan1081" style="text-decoration:;">spring-profiler-common.jar</tspan></tspan></text></g></g><g id="SvgjsG1082" transform="translate(1245.5,370)"><path id="SvgjsPath1083" d="M 0 0L 184.5 0L 184.5 41L 0 41Z" stroke="rgba(33,41,48,1)" stroke-width="1" fill-opacity="1" fill="#ffffff"></path><g id="SvgjsG1084"><text id="SvgjsText1085" font-family="微软雅黑" text-anchor="middle" font-size="13px" width="165px" fill="#323232" font-weight="400" align="middle" lineHeight="125%" anchor="middle" family="微软雅黑" size="13px" weight="400" font-style="" opacity="1" y="9.875" transform="rotate(0)"><tspan id="SvgjsTspan1086" dy="16" x="92.5"><tspan id="SvgjsTspan1087" style="text-decoration:;">spring-profiler-extension.jar</tspan></tspan></text></g></g><g id="SvgjsG1088"><path id="SvgjsPath1089" d="M1045 294.5L1045 332L778.75 332L778.75 368.20000000000005" stroke-dasharray="8,5" stroke="#323232" stroke-width="1" fill="none" marker-end="url(#SvgjsMarker1090)"></path></g><g id="SvgjsG1092"><path id="SvgjsPath1093" d="M1045 294.5L1045 332L958.75 332L958.75 368.20000000000005" stroke-dasharray="8,5" stroke="#323232" stroke-width="1" fill="none" marker-end="url(#SvgjsMarker1094)"></path></g><g id="SvgjsG1096"><path id="SvgjsPath1097" d="M1045 294.5L1045 332L1143.75 332L1143.75 368.20000000000005" stroke-dasharray="8,5" stroke="#323232" stroke-width="1" fill="none" marker-end="url(#SvgjsMarker1098)"></path></g><g id="SvgjsG1100"><path id="SvgjsPath1101" d="M1045 294.5L1045 332L1337.75 332L1337.75 368.20000000000005" stroke-dasharray="8,5" stroke="#323232" stroke-width="1" fill="none" marker-end="url(#SvgjsMarker1102)"></path></g><g id="SvgjsG1104"><path id="SvgjsPath1105" d="M456.4577219112741 369.7987771088083C 559 324 748.3920636482779 270 948.2000360439667 270.0113910921773" stroke-dasharray="3,3" stroke="#323232" stroke-width="1" fill="none" marker-end="url(#SvgjsMarker1106)"></path></g><g id="SvgjsG1108" transform="matrix(0.9848077530122082,-0.17364817766692953,0.17364817766692953,0.9848077530122082,594.3335651524019,273.9425536982842)"><path id="SvgjsPath1109" d="M 0 0L 147.9907033856009 0L 147.9907033856009 40L 0 40Z" stroke="none" fill="none"></path><g id="SvgjsG1110"><text id="SvgjsText1111" font-family="微软雅黑" text-anchor="middle" font-size="13px" width="148px" fill="#323232" font-weight="400" align="middle" lineHeight="125%" anchor="middle" family="微软雅黑" size="13px" weight="400" font-style="" opacity="1" y="9.375" transform="rotate(0)"><tspan id="SvgjsTspan1112" dy="16" x="74"><tspan id="SvgjsTspan1113" style="text-decoration:;">custom classloader</tspan></tspan></text></g></g><g id="SvgjsG1114"><path id="SvgjsPath1115" d="M87.97834507503649 411.1455540765088C 219.5 452 455.5 477 776.9850403432931 411.35343657167493" stroke-dasharray="10,5,3,5" stroke="#323232" stroke-width="1" fill="none" marker-end="url(#SvgjsMarker1116)"></path></g><g id="SvgjsG1118"><path id="SvgjsPath1119" d="M422.5 442C 413.7871533370497 450.50826719392444 409.4307300055745 454.76240079088655 400.7178833426242 463.270667984811" stroke="#ff0000" stroke-width="2" fill="none"></path></g><g id="SvgjsG1120"><path id="SvgjsPath1121" d="M421.06164341607405 464.34821698677877C 413.6369860496444 454.2089301920672 409.92465736642964 449.13928679471155 402.5 439" stroke="#ff0000" stroke-width="2" fill="none"></path></g></svg>