<svg id="SvgjsSvg1001" width="1455.5" height="572" xmlns="http://www.w3.org/2000/svg" version="1.1" xmlns:xlink="http://www.w3.org/1999/xlink" xmlns:svgjs="http://svgjs.com/svgjs"><defs id="SvgjsDefs1002"><marker id="SvgjsMarker1034" markerWidth="12" markerHeight="8" refX="9" refY="4" viewBox="0 0 12 8" orient="auto" markerUnits="userSpaceOnUse" stroke-dasharray="0,0"><path id="SvgjsPath1035" d="M0,0 L12,4 L0,8 L0,0" fill="#323232" stroke="#323232" stroke-width="1"></path></marker><marker id="SvgjsMarker1038" markerWidth="12" markerHeight="8" refX="9" refY="4" viewBox="0 0 12 8" orient="auto" markerUnits="userSpaceOnUse" stroke-dasharray="0,0"><path id="SvgjsPath1039" d="M0,0 L12,4 L0,8 L0,0" fill="#323232" stroke="#323232" stroke-width="1"></path></marker><marker id="SvgjsMarker1042" markerWidth="12" markerHeight="8" refX="9" refY="4" viewBox="0 0 12 8" orient="auto" markerUnits="userSpaceOnUse" stroke-dasharray="0,0"><path id="SvgjsPath1043" d="M0,0 L12,4 L0,8 L0,0" fill="#323232" stroke="#323232" stroke-width="1"></path></marker><marker id="SvgjsMarker1052" markerWidth="12" markerHeight="8" refX="9" refY="4" viewBox="0 0 12 8" orient="auto" markerUnits="userSpaceOnUse" stroke-dasharray="0,0"><path id="SvgjsPath1053" d="M0,0 L12,4 L0,8 L0,0" fill="#323232" stroke="#323232" stroke-width="1"></path></marker><marker id="SvgjsMarker1068" markerWidth="12" markerHeight="8" refX="9" refY="4" viewBox="0 0 12 8" orient="auto" markerUnits="userSpaceOnUse" stroke-dasharray="0,0"><path id="SvgjsPath1069" d="M0,0 L12,4 L0,8 L0,0" fill="#323232" stroke="#323232" stroke-width="1"></path></marker><marker id="SvgjsMarker1090" markerWidth="12" markerHeight="8" refX="9" refY="4" viewBox="0 0 12 8" orient="auto" markerUnits="userSpaceOnUse" stroke-dasharray="0,0"><path id="SvgjsPath1091" d="M0,0 L12,4 L0,8 L0,0" fill="#323232" stroke="#323232" stroke-width="1"></path></marker><marker id="SvgjsMarker1094" markerWidth="12" markerHeight="8" refX="9" refY="4" viewBox="0 0 12 8" orient="auto" markerUnits="userSpaceOnUse" stroke-dasharray="0,0"><path id="SvgjsPath1095" d="M0,0 L12,4 L0,8 L0,0" fill="#323232" stroke="#323232" stroke-width="1"></path></marker><marker id="SvgjsMarker1098" markerWidth="12" markerHeight="8" refX="9" refY="4" viewBox="0 0 12 8" orient="auto" markerUnits="userSpaceOnUse" stroke-dasharray="0,0"><path id="SvgjsPath1099" d="M0,0 L12,4 L0,8 L0,0" fill="#323232" stroke="#323232" stroke-width="1"></path></marker><marker id="SvgjsMarker1102" markerWidth="12" markerHeight="8" refX="9" refY="4" viewBox="0 0 12 8" orient="auto" markerUnits="userSpaceOnUse" stroke-dasharray="0,0"><path id="SvgjsPath1103" d="M0,0 L12,4 L0,8 L0,0" fill="#323232" stroke="#323232" stroke-width="1"></path></marker><marker id="SvgjsMarker1106" markerWidth="12" markerHeight="8" refX="9" refY="4" viewBox="0 0 12 8" orient="auto" markerUnits="userSpaceOnUse" stroke-dasharray="0,0"><path id="SvgjsPath1107" d="M0,0 L12,4 L0,8 L0,0" fill="#323232" stroke="#323232" stroke-width="1"></path></marker><marker id="SvgjsMarker1123" markerWidth="12" markerHeight="8" refX="9" refY="4" viewBox="0 0 12 8" orient="auto" markerUnits="userSpaceOnUse" stroke-dasharray="0,0"><path id="SvgjsPath1124" d="M0,0 L12,4 L0,8 L0,0" fill="#323232" stroke="#323232" stroke-width="1"></path></marker><marker id="SvgjsMarker1139" markerWidth="12" markerHeight="8" refX="9" refY="4" viewBox="0 0 12 8" orient="auto" markerUnits="userSpaceOnUse" stroke-dasharray="0,0"><path id="SvgjsPath1140" d="M0,0 L12,4 L0,8 L0,0" fill="#323232" stroke="#323232" stroke-width="1"></path></marker><marker id="SvgjsMarker1155" markerWidth="12" markerHeight="8" refX="9" refY="4" viewBox="0 0 12 8" orient="auto" markerUnits="userSpaceOnUse" stroke-dasharray="0,0"><path id="SvgjsPath1156" d="M0,0 L12,4 L0,8 L0,0" fill="#323232" stroke="#323232" stroke-width="1"></path></marker><marker id="SvgjsMarker1159" markerWidth="12" markerHeight="8" refX="9" refY="4" viewBox="0 0 12 8" orient="auto" markerUnits="userSpaceOnUse" stroke-dasharray="0,0"><path id="SvgjsPath1160" d="M0,0 L12,4 L0,8 L0,0" fill="#323232" stroke="#323232" stroke-width="1"></path></marker><marker id="SvgjsMarker1163" markerWidth="12" markerHeight="8" refX="9" refY="4" viewBox="0 0 12 8" orient="auto" markerUnits="userSpaceOnUse" stroke-dasharray="0,0"><path id="SvgjsPath1164" d="M0,0 L12,4 L0,8 L0,0" fill="#323232" stroke="#323232" stroke-width="1"></path></marker></defs><g id="SvgjsG1008" transform="translate(543.5,38.82589150661062)"><path id="SvgjsPath1009" d="M 0 0L 217 0L 217 51L 0 51Z" stroke="rgba(33,41,48,1)" stroke-width="1" fill-opacity="1" fill="#ffffff"></path><g id="SvgjsG1010"><text id="SvgjsText1011" font-family="微软雅黑" text-anchor="middle" font-size="13px" width="197px" fill="#323232" font-weight="700" align="middle" lineHeight="125%" anchor="middle" family="微软雅黑" size="13px" weight="700" font-style="" opacity="1" y="14.875" transform="rotate(0)"><tspan id="SvgjsTspan1012" dy="16" x="108.5"><tspan id="SvgjsTspan1013" style="text-decoration:;">BootstrapClassLoader</tspan></tspan></text></g></g><g id="SvgjsG1014" transform="translate(543.5,132.82589150661062)"><path id="SvgjsPath1015" d="M 0 0L 217 0L 217 51L 0 51Z" stroke="rgba(33,41,48,1)" stroke-width="1" fill-opacity="1" fill="#ffffff"></path><g id="SvgjsG1016"><text id="SvgjsText1017" font-family="微软雅黑" text-anchor="middle" font-size="13px" width="197px" fill="#323232" font-weight="700" align="middle" lineHeight="125%" anchor="middle" family="微软雅黑" size="13px" weight="700" font-style="" opacity="1" y="14.875" transform="rotate(0)"><tspan id="SvgjsTspan1018" dy="16" x="108.5"><tspan id="SvgjsTspan1019" style="text-decoration:;">ExtClassLoader</tspan></tspan></text></g></g><g id="SvgjsG1020" transform="translate(150,259.8258915066106)"><path id="SvgjsPath1021" d="M 0 0L 190 0L 190 48L 0 48Z" stroke="rgba(33,41,48,1)" stroke-width="1" fill-opacity="1" fill="#ffffff"></path><g id="SvgjsG1022"><text id="SvgjsText1023" font-family="微软雅黑" text-anchor="middle" font-size="13px" width="170px" fill="#323232" font-weight="700" align="middle" lineHeight="125%" anchor="middle" family="微软雅黑" size="13px" weight="700" font-style="" opacity="1" y="13.375" transform="rotate(0)"><tspan id="SvgjsTspan1024" dy="16" x="95"><tspan id="SvgjsTspan1025" style="text-decoration:;">ApplicationClassLoader</tspan></tspan></text></g></g><g id="SvgjsG1026" transform="translate(950,259.8258915066106)"><path id="SvgjsPath1027" d="M 0 0L 190 0L 190 48L 0 48Z" stroke="rgba(33,41,48,1)" stroke-width="1" fill-opacity="1" fill="#ffffff"></path><g id="SvgjsG1028"><text id="SvgjsText1029" font-family="微软雅黑" text-anchor="middle" font-size="13px" width="170px" fill="#323232" font-weight="700" align="middle" lineHeight="125%" anchor="middle" family="微软雅黑" size="13px" weight="700" font-style="" opacity="1" y="13.375" transform="rotate(0)"><tspan id="SvgjsTspan1030" dy="16" x="95"><tspan id="SvgjsTspan1031" style="text-decoration:;">ProfilerAgentClassLoader</tspan></tspan></text></g></g><g id="SvgjsG1032"><path id="SvgjsPath1033" d="M652 90.32589150661062L652 111.32589150661062L652 111.32589150661062L652 131.0258915066106" stroke="#323232" stroke-width="1" fill="none" marker-end="url(#SvgjsMarker1034)"></path></g><g id="SvgjsG1036"><path id="SvgjsPath1037" d="M652 184.32589150661062L652 221.82589150661062L245 221.82589150661062L245 258.0258915066106" stroke="#323232" stroke-width="1" fill="none" marker-end="url(#SvgjsMarker1038)"></path></g><g id="SvgjsG1040"><path id="SvgjsPath1041" d="M652 184.32589150661062L652 221.82589150661062L1045 221.82589150661062L1045 258.0258915066106" stroke="#323232" stroke-width="1" fill="none" marker-end="url(#SvgjsMarker1042)"></path></g><g id="SvgjsG1044" transform="translate(25,383.82589150661056)"><path id="SvgjsPath1045" d="M 0 0L 125 0L 125 41L 0 41Z" stroke="rgba(33,41,48,1)" stroke-width="1" fill-opacity="1" fill="#ffffff"></path><g id="SvgjsG1046"><text id="SvgjsText1047" font-family="微软雅黑" text-anchor="middle" font-size="13px" width="105px" fill="#323232" font-weight="400" align="middle" lineHeight="125%" anchor="middle" family="微软雅黑" size="13px" weight="400" font-style="" opacity="1" y="9.875" transform="rotate(0)"><tspan id="SvgjsTspan1048" dy="16" x="62.5"><tspan id="SvgjsTspan1049" style="text-decoration:;">application.jar</tspan></tspan></text></g></g><g id="SvgjsG1050"><path id="SvgjsPath1051" d="M245 308.3258915066106L245 345.82589150661056L87.5 345.82589150661056L87.5 382.0258915066106" stroke-dasharray="8,5" stroke="#323232" stroke-width="1" fill="none" marker-end="url(#SvgjsMarker1052)"></path></g><g id="SvgjsG1054" transform="translate(319.5,383.82589150661056)"><path id="SvgjsPath1055" d="M 0 0L 166.5 0L 166.5 41L 0 41Z" stroke="rgba(33,41,48,1)" stroke-width="1" fill-opacity="1" fill="#ffffff"></path><g id="SvgjsG1056"><text id="SvgjsText1057" font-family="微软雅黑" text-anchor="middle" font-size="13px" width="147px" fill="#323232" font-weight="400" align="middle" lineHeight="125%" anchor="middle" family="微软雅黑" size="13px" weight="400" font-style="" opacity="1" y="9.875" transform="rotate(0)"><tspan id="SvgjsTspan1058" dy="16" x="83.5"><tspan id="SvgjsTspan1059" style="text-decoration:;">spring-profiler-agent.jar</tspan></tspan></text></g></g><g id="SvgjsG1060" transform="translate(695.5,383.82589150661056)"><path id="SvgjsPath1061" d="M 0 0L 166.5 0L 166.5 41L 0 41Z" stroke="rgba(33,41,48,1)" stroke-width="1" fill-opacity="1" fill="#ffffff"></path><g id="SvgjsG1062"><text id="SvgjsText1063" font-family="微软雅黑" text-anchor="middle" font-size="13px" width="147px" fill="#323232" font-weight="400" align="middle" lineHeight="125%" anchor="middle" family="微软雅黑" size="13px" weight="400" font-style="" opacity="1" y="9.875" transform="rotate(0)"><tspan id="SvgjsTspan1064" dy="16" x="83.5"><tspan id="SvgjsTspan1065" style="text-decoration:;">spring-profiler-core.jar</tspan></tspan></text></g></g><g id="SvgjsG1066"><path id="SvgjsPath1067" d="M245 308.3258915066106L245 345.82589150661056L402.75 345.82589150661056L402.75 382.0258915066106" stroke-dasharray="8,5" stroke="#323232" stroke-width="1" fill="none" marker-end="url(#SvgjsMarker1068)"></path></g><g id="SvgjsG1070" transform="translate(875.5,383.82589150661056)"><path id="SvgjsPath1071" d="M 0 0L 166.5 0L 166.5 41L 0 41Z" stroke="rgba(33,41,48,1)" stroke-width="1" fill-opacity="1" fill="#ffffff"></path><g id="SvgjsG1072"><text id="SvgjsText1073" font-family="微软雅黑" text-anchor="middle" font-size="13px" width="147px" fill="#323232" font-weight="400" align="middle" lineHeight="125%" anchor="middle" family="微软雅黑" size="13px" weight="400" font-style="" opacity="1" y="9.875" transform="rotate(0)"><tspan id="SvgjsTspan1074" dy="16" x="83.5"><tspan id="SvgjsTspan1075" style="text-decoration:;">spring-profiler-api.jar</tspan></tspan></text></g></g><g id="SvgjsG1076" transform="translate(1055.5,383.82589150661056)"><path id="SvgjsPath1077" d="M 0 0L 176.5 0L 176.5 41L 0 41Z" stroke="rgba(33,41,48,1)" stroke-width="1" fill-opacity="1" fill="#ffffff"></path><g id="SvgjsG1078"><text id="SvgjsText1079" font-family="微软雅黑" text-anchor="middle" font-size="13px" width="157px" fill="#323232" font-weight="400" align="middle" lineHeight="125%" anchor="middle" family="微软雅黑" size="13px" weight="400" font-style="" opacity="1" y="9.875" transform="rotate(0)"><tspan id="SvgjsTspan1080" dy="16" x="88.5"><tspan id="SvgjsTspan1081" style="text-decoration:;">spring-profiler-common.jar</tspan></tspan></text></g></g><g id="SvgjsG1082" transform="translate(1245.5,383.82589150661056)"><path id="SvgjsPath1083" d="M 0 0L 184.5 0L 184.5 41L 0 41Z" stroke="rgba(33,41,48,1)" stroke-width="1" fill-opacity="1" fill="#ffffff"></path><g id="SvgjsG1084"><text id="SvgjsText1085" font-family="微软雅黑" text-anchor="middle" font-size="13px" width="165px" fill="#323232" font-weight="400" align="middle" lineHeight="125%" anchor="middle" family="微软雅黑" size="13px" weight="400" font-style="" opacity="1" y="9.875" transform="rotate(0)"><tspan id="SvgjsTspan1086" dy="16" x="92.5"><tspan id="SvgjsTspan1087" style="text-decoration:;">spring-profiler-extension.jar</tspan></tspan></text></g></g><g id="SvgjsG1088"><path id="SvgjsPath1089" d="M1045 308.3258915066106L1045 345.82589150661056L778.75 345.82589150661056L778.75 382.0258915066106" stroke-dasharray="8,5" stroke="#323232" stroke-width="1" fill="none" marker-end="url(#SvgjsMarker1090)"></path></g><g id="SvgjsG1092"><path id="SvgjsPath1093" d="M1045 308.3258915066106L1045 345.82589150661056L958.75 345.82589150661056L958.75 382.0258915066106" stroke-dasharray="8,5" stroke="#323232" stroke-width="1" fill="none" marker-end="url(#SvgjsMarker1094)"></path></g><g id="SvgjsG1096"><path id="SvgjsPath1097" d="M1045 308.3258915066106L1045 345.82589150661056L1143.75 345.82589150661056L1143.75 382.0258915066106" stroke-dasharray="8,5" stroke="#323232" stroke-width="1" fill="none" marker-end="url(#SvgjsMarker1098)"></path></g><g id="SvgjsG1100"><path id="SvgjsPath1101" d="M1045 308.3258915066106L1045 345.82589150661056L1337.75 345.82589150661056L1337.75 382.0258915066106" stroke-dasharray="8,5" stroke="#323232" stroke-width="1" fill="none" marker-end="url(#SvgjsMarker1102)"></path></g><g id="SvgjsG1104"><path id="SvgjsPath1105" d="M456.4577219112741 383.62466861541884C 559 337.8258915066106 748.3920636482779 283.8258915066106 948.2000360439667 283.8372825987879" stroke-dasharray="3,3" stroke="#323232" stroke-width="1" fill="none" marker-end="url(#SvgjsMarker1106)"></path></g><g id="SvgjsG1108" transform="matrix(0.9848077530122082,-0.17364817766692953,0.17364817766692953,0.9848077530122082,594.3335651524019,287.7684509150811)"><path id="SvgjsPath1109" d="M 0 0L 147.9907033856009 0L 147.9907033856009 40L 0 40Z" stroke="none" fill="none"></path><g id="SvgjsG1110"><text id="SvgjsText1111" font-family="微软雅黑" text-anchor="middle" font-size="13px" width="148px" fill="#323232" font-weight="400" align="middle" lineHeight="125%" anchor="middle" family="微软雅黑" size="13px" weight="400" font-style="" opacity="1" y="9.375" transform="rotate(0)"><tspan id="SvgjsTspan1112" dy="16" x="74"><tspan id="SvgjsTspan1113" style="text-decoration:;">custom classloader</tspan></tspan></text></g></g><g id="SvgjsG1114" transform="translate(982.5,43.82589150661062)"><path id="SvgjsPath1115" d="M 0 0L 166.5 0L 166.5 41L 0 41Z" stroke="rgba(33,41,48,1)" stroke-width="1" fill-opacity="1" fill="#ffffff"></path><g id="SvgjsG1116"><text id="SvgjsText1117" font-family="微软雅黑" text-anchor="middle" font-size="13px" width="147px" fill="#323232" font-weight="700" align="middle" lineHeight="125%" anchor="middle" family="微软雅黑" size="13px" weight="700" font-style="" opacity="1" y="9.875" transform="rotate(0)"><tspan id="SvgjsTspan1118" dy="16" x="83.5"><tspan id="SvgjsTspan1119" style="text-decoration:;">spring-profiler-bridge</tspan><tspan id="SvgjsTspan1120" style="text-decoration:;font-size: inherit;">.jar</tspan></tspan></text></g></g><g id="SvgjsG1121"><path id="SvgjsPath1122" d="M761 64.32589150661062L871.5 64.32589150661062L871.5 64.32589150661062L980.7 64.32589150661062" stroke-dasharray="8,5" stroke="#323232" stroke-width="1" fill="none" marker-end="url(#SvgjsMarker1123)"></path></g><g id="SvgjsG1125" transform="translate(778,25)"><path id="SvgjsPath1126" d="M 0 0L 172 0L 172 40L 0 40Z" stroke="none" fill="none"></path><g id="SvgjsG1127"><text id="SvgjsText1128" font-family="微软雅黑" text-anchor="middle" font-size="13px" width="172px" fill="#ff0000" font-weight="700" align="middle" lineHeight="125%" anchor="middle" family="微软雅黑" size="13px" weight="700" font-style="" opacity="1" y="9.375" transform="rotate(0)"><tspan id="SvgjsTspan1129" dy="16" x="86"><tspan id="SvgjsTspan1130" style="text-decoration:;">Bridge/AbstractBridge</tspan></tspan></text></g></g><g id="SvgjsG1131" transform="translate(37.5,507)"><path id="SvgjsPath1132" d="M 0 0L 100 0L 100 40L 0 40Z" stroke="none" fill="none"></path><g id="SvgjsG1133"><text id="SvgjsText1134" font-family="微软雅黑" text-anchor="middle" font-size="13px" width="100px" fill="#323232" font-weight="400" align="middle" lineHeight="125%" anchor="middle" family="微软雅黑" size="13px" weight="400" font-style="" opacity="1" y="9.375" transform="rotate(0)"><tspan id="SvgjsTspan1135" dy="16" x="50"><tspan id="SvgjsTspan1136" style="text-decoration:;">Bridge</tspan></tspan></text></g></g><g id="SvgjsG1137"><path id="SvgjsPath1138" d="M87.5 425.32589150661056L87.5 465.9129457533053L87.5 465.9129457533053L87.5 507" stroke-dasharray="3,3" stroke="#323232" stroke-width="1" fill="none" marker-end="url(#SvgjsMarker1139)"></path></g><g id="SvgjsG1141" transform="translate(352.75,507)"><path id="SvgjsPath1142" d="M 0 0L 100 0L 100 40L 0 40Z" stroke="none" fill="none"></path><g id="SvgjsG1143"><text id="SvgjsText1144" font-family="微软雅黑" text-anchor="middle" font-size="13px" width="100px" fill="#323232" font-weight="400" align="middle" lineHeight="125%" anchor="middle" family="微软雅黑" size="13px" weight="400" font-style="" opacity="1" y="9.375" transform="rotate(0)"><tspan id="SvgjsTspan1145" dy="16" x="50"><tspan id="SvgjsTspan1146" style="text-decoration:;">AbstractBridge</tspan></tspan></text></g></g><g id="SvgjsG1147" transform="translate(728.75,507)"><path id="SvgjsPath1148" d="M 0 0L 100 0L 100 40L 0 40Z" stroke="none" fill="none"></path><g id="SvgjsG1149"><text id="SvgjsText1150" font-family="微软雅黑" text-anchor="middle" font-size="13px" width="100px" fill="#323232" font-weight="400" align="middle" lineHeight="125%" anchor="middle" family="微软雅黑" size="13px" weight="400" font-style="" opacity="1" y="9.375" transform="rotate(0)"><tspan id="SvgjsTspan1151" dy="16" x="50"><tspan id="SvgjsTspan1152" style="text-decoration:;">EventDispatcher</tspan></tspan></text></g></g><g id="SvgjsG1153"><path id="SvgjsPath1154" d="M778.75 425.32589150661056L778.75 465.9129457533053L778.75 465.9129457533053L778.75 507" stroke-dasharray="3,3" stroke="#323232" stroke-width="1" fill="none" marker-end="url(#SvgjsMarker1155)"></path></g><g id="SvgjsG1157"><path id="SvgjsPath1158" d="M115.5 529L229.5 529L229.5 529L343.5 529" stroke-dasharray="3,3" stroke="#323232" stroke-width="1" fill="none" marker-end="url(#SvgjsMarker1159)"></path></g><g id="SvgjsG1161"><path id="SvgjsPath1162" d="M723.5 528L591.5 528L591.5 528L459.5 528" stroke-dasharray="3,3" stroke="#323232" stroke-width="1" fill="none" marker-end="url(#SvgjsMarker1163)"></path></g></svg>