<svg id="SvgjsSvg1124" width="1455.5" height="553" xmlns="http://www.w3.org/2000/svg" version="1.1" xmlns:xlink="http://www.w3.org/1999/xlink" xmlns:svgjs="http://svgjs.com/svgjs"><defs id="SvgjsDefs1125"><marker id="SvgjsMarker1152" markerWidth="12" markerHeight="8" refX="9" refY="4" viewBox="0 0 12 8" orient="auto" markerUnits="userSpaceOnUse" stroke-dasharray="0,0"><path id="SvgjsPath1153" d="M0,0 L12,4 L0,8 L0,0" fill="#323232" stroke="#323232" stroke-width="1"></path></marker><marker id="SvgjsMarker1156" markerWidth="12" markerHeight="8" refX="9" refY="4" viewBox="0 0 12 8" orient="auto" markerUnits="userSpaceOnUse" stroke-dasharray="0,0"><path id="SvgjsPath1157" d="M0,0 L12,4 L0,8 L0,0" fill="#323232" stroke="#323232" stroke-width="1"></path></marker><marker id="SvgjsMarker1160" markerWidth="12" markerHeight="8" refX="9" refY="4" viewBox="0 0 12 8" orient="auto" markerUnits="userSpaceOnUse" stroke-dasharray="0,0"><path id="SvgjsPath1161" d="M0,0 L12,4 L0,8 L0,0" fill="#323232" stroke="#323232" stroke-width="1"></path></marker><marker id="SvgjsMarker1170" markerWidth="12" markerHeight="8" refX="9" refY="4" viewBox="0 0 12 8" orient="auto" markerUnits="userSpaceOnUse" stroke-dasharray="0,0"><path id="SvgjsPath1171" d="M0,0 L12,4 L0,8 L0,0" fill="#323232" stroke="#323232" stroke-width="1"></path></marker><marker id="SvgjsMarker1186" markerWidth="12" markerHeight="8" refX="9" refY="4" viewBox="0 0 12 8" orient="auto" markerUnits="userSpaceOnUse" stroke-dasharray="0,0"><path id="SvgjsPath1187" d="M0,0 L12,4 L0,8 L0,0" fill="#323232" stroke="#323232" stroke-width="1"></path></marker><marker id="SvgjsMarker1208" markerWidth="12" markerHeight="8" refX="9" refY="4" viewBox="0 0 12 8" orient="auto" markerUnits="userSpaceOnUse" stroke-dasharray="0,0"><path id="SvgjsPath1209" d="M0,0 L12,4 L0,8 L0,0" fill="#323232" stroke="#323232" stroke-width="1"></path></marker><marker id="SvgjsMarker1212" markerWidth="12" markerHeight="8" refX="9" refY="4" viewBox="0 0 12 8" orient="auto" markerUnits="userSpaceOnUse" stroke-dasharray="0,0"><path id="SvgjsPath1213" d="M0,0 L12,4 L0,8 L0,0" fill="#323232" stroke="#323232" stroke-width="1"></path></marker><marker id="SvgjsMarker1216" markerWidth="12" markerHeight="8" refX="9" refY="4" viewBox="0 0 12 8" orient="auto" markerUnits="userSpaceOnUse" stroke-dasharray="0,0"><path id="SvgjsPath1217" d="M0,0 L12,4 L0,8 L0,0" fill="#323232" stroke="#323232" stroke-width="1"></path></marker><marker id="SvgjsMarker1220" markerWidth="12" markerHeight="8" refX="9" refY="4" viewBox="0 0 12 8" orient="auto" markerUnits="userSpaceOnUse" stroke-dasharray="0,0"><path id="SvgjsPath1221" d="M0,0 L12,4 L0,8 L0,0" fill="#323232" stroke="#323232" stroke-width="1"></path></marker><marker id="SvgjsMarker1224" markerWidth="12" markerHeight="8" refX="9" refY="4" viewBox="0 0 12 8" orient="auto" markerUnits="userSpaceOnUse" stroke-dasharray="0,0"><path id="SvgjsPath1225" d="M0,0 L12,4 L0,8 L0,0" fill="#323232" stroke="#323232" stroke-width="1"></path></marker><marker id="SvgjsMarker1240" markerWidth="12" markerHeight="8" refX="9" refY="4" viewBox="0 0 12 8" orient="auto" markerUnits="userSpaceOnUse" stroke-dasharray="0,0"><path id="SvgjsPath1241" d="M0,0 L12,4 L0,8 L0,0" fill="#323232" stroke="#323232" stroke-width="1"></path></marker></defs><g id="SvgjsG1126" transform="translate(543.5,25)"><path id="SvgjsPath1127" d="M 0 0L 217 0L 217 51L 0 51Z" stroke="rgba(33,41,48,1)" stroke-width="1" fill-opacity="1" fill="#ffffff"></path><g id="SvgjsG1128"><text id="SvgjsText1129" font-family="微软雅黑" text-anchor="middle" font-size="13px" width="197px" fill="#323232" font-weight="700" align="middle" lineHeight="125%" anchor="middle" family="微软雅黑" size="13px" weight="700" font-style="" opacity="1" y="14.875" transform="rotate(0)"><tspan id="SvgjsTspan1130" dy="16" x="108.5"><tspan id="SvgjsTspan1131" style="text-decoration:;">BootstrapClassLoader</tspan></tspan></text></g></g><g id="SvgjsG1132" transform="translate(543.5,119)"><path id="SvgjsPath1133" d="M 0 0L 217 0L 217 51L 0 51Z" stroke="rgba(33,41,48,1)" stroke-width="1" fill-opacity="1" fill="#ffffff"></path><g id="SvgjsG1134"><text id="SvgjsText1135" font-family="微软雅黑" text-anchor="middle" font-size="13px" width="197px" fill="#323232" font-weight="700" align="middle" lineHeight="125%" anchor="middle" family="微软雅黑" size="13px" weight="700" font-style="" opacity="1" y="14.875" transform="rotate(0)"><tspan id="SvgjsTspan1136" dy="16" x="108.5"><tspan id="SvgjsTspan1137" style="text-decoration:;">ExtClassLoader</tspan></tspan></text></g></g><g id="SvgjsG1138" transform="translate(150,246)"><path id="SvgjsPath1139" d="M 0 0L 190 0L 190 48L 0 48Z" stroke="rgba(33,41,48,1)" stroke-width="1" fill-opacity="1" fill="#ffffff"></path><g id="SvgjsG1140"><text id="SvgjsText1141" font-family="微软雅黑" text-anchor="middle" font-size="13px" width="170px" fill="#323232" font-weight="700" align="middle" lineHeight="125%" anchor="middle" family="微软雅黑" size="13px" weight="700" font-style="" opacity="1" y="13.375" transform="rotate(0)"><tspan id="SvgjsTspan1142" dy="16" x="95"><tspan id="SvgjsTspan1143" style="text-decoration:;">ApplicationClassLoader</tspan></tspan></text></g></g><g id="SvgjsG1144" transform="translate(950,246)"><path id="SvgjsPath1145" d="M 0 0L 190 0L 190 48L 0 48Z" stroke="rgba(33,41,48,1)" stroke-width="1" fill-opacity="1" fill="#ffffff"></path><g id="SvgjsG1146"><text id="SvgjsText1147" font-family="微软雅黑" text-anchor="middle" font-size="13px" width="170px" fill="#323232" font-weight="700" align="middle" lineHeight="125%" anchor="middle" family="微软雅黑" size="13px" weight="700" font-style="" opacity="1" y="13.375" transform="rotate(0)"><tspan id="SvgjsTspan1148" dy="16" x="95"><tspan id="SvgjsTspan1149" style="text-decoration:;">ProfilerAgentClassLoader</tspan></tspan></text></g></g><g id="SvgjsG1150"><path id="SvgjsPath1151" d="M652 76.5L652 97.5L652 97.5L652 117.19999999999999" stroke="#323232" stroke-width="1" fill="none" marker-end="url(#SvgjsMarker1152)"></path></g><g id="SvgjsG1154"><path id="SvgjsPath1155" d="M652 170.5L652 208L245 208L245 244.2" stroke="#323232" stroke-width="1" fill="none" marker-end="url(#SvgjsMarker1156)"></path></g><g id="SvgjsG1158"><path id="SvgjsPath1159" d="M652 170.5L652 208L1045 208L1045 244.2" stroke="#323232" stroke-width="1" fill="none" marker-end="url(#SvgjsMarker1160)"></path></g><g id="SvgjsG1162" transform="translate(25,370)"><path id="SvgjsPath1163" d="M 0 0L 125 0L 125 41L 0 41Z" stroke="rgba(33,41,48,1)" stroke-width="1" fill-opacity="1" fill="#ffffff"></path><g id="SvgjsG1164"><text id="SvgjsText1165" font-family="微软雅黑" text-anchor="middle" font-size="13px" width="105px" fill="#323232" font-weight="400" align="middle" lineHeight="125%" anchor="middle" family="微软雅黑" size="13px" weight="400" font-style="" opacity="1" y="9.875" transform="rotate(0)"><tspan id="SvgjsTspan1166" dy="16" x="62.5"><tspan id="SvgjsTspan1167" style="text-decoration:;">application.jar</tspan></tspan></text></g></g><g id="SvgjsG1168"><path id="SvgjsPath1169" d="M245 294.5L245 332L87.5 332L87.5 368.2" stroke-dasharray="8,5" stroke="#323232" stroke-width="1" fill="none" marker-end="url(#SvgjsMarker1170)"></path></g><g id="SvgjsG1172" transform="translate(319.5,370)"><path id="SvgjsPath1173" d="M 0 0L 166.5 0L 166.5 41L 0 41Z" stroke="rgba(33,41,48,1)" stroke-width="1" fill-opacity="1" fill="#ffffff"></path><g id="SvgjsG1174"><text id="SvgjsText1175" font-family="微软雅黑" text-anchor="middle" font-size="13px" width="147px" fill="#323232" font-weight="400" align="middle" lineHeight="125%" anchor="middle" family="微软雅黑" size="13px" weight="400" font-style="" opacity="1" y="9.875" transform="rotate(0)"><tspan id="SvgjsTspan1176" dy="16" x="83.5"><tspan id="SvgjsTspan1177" style="text-decoration:;">java-profiler-agent.jar</tspan></tspan></text></g></g><g id="SvgjsG1178" transform="translate(695.5,370)"><path id="SvgjsPath1179" d="M 0 0L 166.5 0L 166.5 41L 0 41Z" stroke="rgba(33,41,48,1)" stroke-width="1" fill-opacity="1" fill="#ffffff"></path><g id="SvgjsG1180"><text id="SvgjsText1181" font-family="微软雅黑" text-anchor="middle" font-size="13px" width="147px" fill="#323232" font-weight="400" align="middle" lineHeight="125%" anchor="middle" family="微软雅黑" size="13px" weight="400" font-style="" opacity="1" y="9.875" transform="rotate(0)"><tspan id="SvgjsTspan1182" dy="16" x="83.5"><tspan id="SvgjsTspan1183" style="text-decoration:;">java-profiler-core.jar</tspan></tspan></text></g></g><g id="SvgjsG1184"><path id="SvgjsPath1185" d="M245 294.5L245 332L402.75 332L402.75 368.2" stroke-dasharray="8,5" stroke="#323232" stroke-width="1" fill="none" marker-end="url(#SvgjsMarker1186)"></path></g><g id="SvgjsG1188" transform="translate(875.5,370)"><path id="SvgjsPath1189" d="M 0 0L 166.5 0L 166.5 41L 0 41Z" stroke="rgba(33,41,48,1)" stroke-width="1" fill-opacity="1" fill="#ffffff"></path><g id="SvgjsG1190"><text id="SvgjsText1191" font-family="微软雅黑" text-anchor="middle" font-size="13px" width="147px" fill="#323232" font-weight="400" align="middle" lineHeight="125%" anchor="middle" family="微软雅黑" size="13px" weight="400" font-style="" opacity="1" y="9.875" transform="rotate(0)"><tspan id="SvgjsTspan1192" dy="16" x="83.5"><tspan id="SvgjsTspan1193" style="text-decoration:;">java-profiler-api.jar</tspan></tspan></text></g></g><g id="SvgjsG1194" transform="translate(1055.5,370)"><path id="SvgjsPath1195" d="M 0 0L 176.5 0L 176.5 41L 0 41Z" stroke="rgba(33,41,48,1)" stroke-width="1" fill-opacity="1" fill="#ffffff"></path><g id="SvgjsG1196"><text id="SvgjsText1197" font-family="微软雅黑" text-anchor="middle" font-size="13px" width="157px" fill="#323232" font-weight="400" align="middle" lineHeight="125%" anchor="middle" family="微软雅黑" size="13px" weight="400" font-style="" opacity="1" y="9.875" transform="rotate(0)"><tspan id="SvgjsTspan1198" dy="16" x="88.5"><tspan id="SvgjsTspan1199" style="text-decoration:;">java-profiler-common.jar</tspan></tspan></text></g></g><g id="SvgjsG1200" transform="translate(1245.5,370)"><path id="SvgjsPath1201" d="M 0 0L 184.5 0L 184.5 41L 0 41Z" stroke="rgba(33,41,48,1)" stroke-width="1" fill-opacity="1" fill="#ffffff"></path><g id="SvgjsG1202"><text id="SvgjsText1203" font-family="微软雅黑" text-anchor="middle" font-size="13px" width="165px" fill="#323232" font-weight="400" align="middle" lineHeight="125%" anchor="middle" family="微软雅黑" size="13px" weight="400" font-style="" opacity="1" y="9.875" transform="rotate(0)"><tspan id="SvgjsTspan1204" dy="16" x="92.5"><tspan id="SvgjsTspan1205" style="text-decoration:;">java-profiler-extension.jar</tspan></tspan></text></g></g><g id="SvgjsG1206"><path id="SvgjsPath1207" d="M1045 294.5L1045 332L778.75 332L778.75 368.2" stroke-dasharray="8,5" stroke="#323232" stroke-width="1" fill="none" marker-end="url(#SvgjsMarker1208)"></path></g><g id="SvgjsG1210"><path id="SvgjsPath1211" d="M1045 294.5L1045 332L958.75 332L958.75 368.2" stroke-dasharray="8,5" stroke="#323232" stroke-width="1" fill="none" marker-end="url(#SvgjsMarker1212)"></path></g><g id="SvgjsG1214"><path id="SvgjsPath1215" d="M1045 294.5L1045 332L1143.75 332L1143.75 368.2" stroke-dasharray="8,5" stroke="#323232" stroke-width="1" fill="none" marker-end="url(#SvgjsMarker1216)"></path></g><g id="SvgjsG1218"><path id="SvgjsPath1219" d="M1045 294.5L1045 332L1337.75 332L1337.75 368.2" stroke-dasharray="8,5" stroke="#323232" stroke-width="1" fill="none" marker-end="url(#SvgjsMarker1220)"></path></g><g id="SvgjsG1222"><path id="SvgjsPath1223" d="M456.4577219112741 369.7987771088083C 559 324 748.3920636482779 270 948.2000360439667 270.0113910921773" stroke-dasharray="3,3" stroke="#323232" stroke-width="1" fill="none" marker-end="url(#SvgjsMarker1224)"></path></g><g id="SvgjsG1226" transform="matrix(0.9848077530122082,-0.17364817766692953,0.17364817766692953,0.9848077530122082,594.3335651524019,273.9425536982842)"><path id="SvgjsPath1227" d="M 0 0L 147.9907033856009 0L 147.9907033856009 40L 0 40Z" stroke="none" fill="none"></path><g id="SvgjsG1228"><text id="SvgjsText1229" font-family="微软雅黑" text-anchor="middle" font-size="13px" width="148px" fill="#323232" font-weight="400" align="middle" lineHeight="125%" anchor="middle" family="微软雅黑" size="13px" weight="400" font-style="" opacity="1" y="9.375" transform="rotate(0)"><tspan id="SvgjsTspan1230" dy="16" x="74"><tspan id="SvgjsTspan1231" style="text-decoration:;">custom classloader</tspan></tspan></text></g></g><g id="SvgjsG1232" transform="translate(319.5,487)"><path id="SvgjsPath1233" d="M 0 0L 166.5 0L 166.5 41L 0 41Z" stroke="rgba(33,41,48,1)" stroke-width="1" fill-opacity="1" fill="#ffffff"></path><g id="SvgjsG1234"><text id="SvgjsText1235" font-family="微软雅黑" text-anchor="middle" font-size="13px" width="147px" fill="#323232" font-weight="400" align="middle" lineHeight="125%" anchor="middle" family="微软雅黑" size="13px" weight="400" font-style="" opacity="1" y="9.875" transform="rotate(0)"><tspan id="SvgjsTspan1236" dy="16" x="83.5"><tspan id="SvgjsTspan1237" style="text-decoration:;font-weight: bold;">Premain-Class</tspan></tspan></text></g></g><g id="SvgjsG1238"><path id="SvgjsPath1239" d="M402.75 411.5C 402.75 441.4 402.75 456.6 402.75 485.2" stroke-dasharray="3,3" stroke="#323232" stroke-width="1" fill="none" marker-end="url(#SvgjsMarker1240)"></path></g></svg>