<svg id="SvgjsSvg1001" width="624" height="471" xmlns="http://www.w3.org/2000/svg" version="1.1" xmlns:xlink="http://www.w3.org/1999/xlink" xmlns:svgjs="http://svgjs.com/svgjs"><defs id="SvgjsDefs1002"><marker id="SvgjsMarker1074" markerWidth="12" markerHeight="8" refX="9" refY="4" viewBox="0 0 12 8" orient="auto" markerUnits="userSpaceOnUse" stroke-dasharray="0,0"><path id="SvgjsPath1075" d="M0,0 L12,4 L0,8 L0,0" fill="#323232" stroke="#323232" stroke-width="1"></path></marker><marker id="SvgjsMarker1078" markerWidth="12" markerHeight="8" refX="9" refY="4" viewBox="0 0 12 8" orient="auto" markerUnits="userSpaceOnUse" stroke-dasharray="0,0"><path id="SvgjsPath1079" d="M0,0 L12,4 L0,8 L0,0" fill="#323232" stroke="#323232" stroke-width="1"></path></marker><marker id="SvgjsMarker1082" markerWidth="12" markerHeight="8" refX="9" refY="4" viewBox="0 0 12 8" orient="auto" markerUnits="userSpaceOnUse" stroke-dasharray="0,0"><path id="SvgjsPath1083" d="M0,0 L12,4 L0,8 L0,0" fill="#323232" stroke="#323232" stroke-width="1"></path></marker><marker id="SvgjsMarker1086" markerWidth="12" markerHeight="8" refX="9" refY="4" viewBox="0 0 12 8" orient="auto" markerUnits="userSpaceOnUse" stroke-dasharray="0,0"><path id="SvgjsPath1087" d="M0,0 L12,4 L0,8 L0,0" fill="#323232" stroke="#323232" stroke-width="1"></path></marker><marker id="SvgjsMarker1114" markerWidth="12" markerHeight="8" refX="9" refY="4" viewBox="0 0 12 8" orient="auto" markerUnits="userSpaceOnUse" stroke-dasharray="0,0"><path id="SvgjsPath1115" d="M0,0 L12,4 L0,8 L0,0" fill="#323232" stroke="#323232" stroke-width="1"></path></marker></defs><g id="SvgjsG1008" transform="translate(25,25)"><path id="SvgjsPath1009" d="M 0 0L 574 0L 574 421L 0 421Z" stroke-dasharray="10,6" stroke="rgba(33,41,48,1)" stroke-width="1" fill-opacity="1" fill="#ffffff"></path><g id="SvgjsG1010"><text id="SvgjsText1011" font-family="微软雅黑" text-anchor="middle" font-size="13px" width="554px" fill="#f44336" font-weight="400" align="top" lineHeight="125%" anchor="middle" family="微软雅黑" size="13px" weight="400" font-style="" opacity="1" y="-2.625" transform="rotate(0)"><tspan id="SvgjsTspan1012" dy="16" x="287"><tspan id="SvgjsTspan1013" style="text-decoration:;">JVM运行环境</tspan></tspan></text></g></g><g id="SvgjsG1014" transform="translate(75,67)"><path id="SvgjsPath1015" d="M 0 0L 164 0L 164 52L 0 52Z" stroke="rgba(33,41,48,1)" stroke-width="1" fill-opacity="1" fill="#ffffff"></path><g id="SvgjsG1016"><text id="SvgjsText1017" font-family="微软雅黑" text-anchor="middle" font-size="13px" width="144px" fill="#323232" font-weight="400" align="middle" lineHeight="125%" anchor="middle" family="微软雅黑" size="13px" weight="400" font-style="" opacity="1" y="15.375" transform="rotate(0)"><tspan id="SvgjsTspan1018" dy="16" x="82"><tspan id="SvgjsTspan1019" style="text-decoration:;">业务应用</tspan></tspan></text></g></g><g id="SvgjsG1020" transform="translate(371,67)"><path id="SvgjsPath1021" d="M 0 0L 164 0L 164 52L 0 52Z" stroke="rgba(33,41,48,1)" stroke-width="1" fill-opacity="1" fill="#ffffff"></path><g id="SvgjsG1022"><text id="SvgjsText1023" font-family="微软雅黑" text-anchor="middle" font-size="13px" width="144px" fill="#323232" font-weight="400" align="middle" lineHeight="125%" anchor="middle" family="微软雅黑" size="13px" weight="400" font-style="" opacity="1" y="15.375" transform="rotate(0)"><tspan id="SvgjsTspan1024" dy="16" x="82"><tspan id="SvgjsTspan1025" style="text-decoration:;">本项目</tspan></tspan></text></g></g><g id="SvgjsG1026" transform="translate(75,183)"><path id="SvgjsPath1027" d="M 0 0L 164 0L 164 52L 0 52Z" stroke="rgba(33,41,48,1)" stroke-width="1" fill-opacity="1" fill="#ffffff"></path><g id="SvgjsG1028"><text id="SvgjsText1029" font-family="微软雅黑" text-anchor="middle" font-size="13px" width="144px" fill="#323232" font-weight="400" align="middle" lineHeight="125%" anchor="middle" family="微软雅黑" size="13px" weight="400" font-style="" opacity="1" y="15.375" transform="rotate(0)"><tspan id="SvgjsTspan1030" dy="16" x="82"><tspan id="SvgjsTspan1031" style="text-decoration:;">fastjson 1.0</tspan></tspan></text></g></g><g id="SvgjsG1032" transform="translate(371,183)"><path id="SvgjsPath1033" d="M 0 0L 164 0L 164 52L 0 52Z" stroke="rgba(33,41,48,1)" stroke-width="1" fill-opacity="1" fill="#ffffff"></path><g id="SvgjsG1034"><text id="SvgjsText1035" font-family="微软雅黑" text-anchor="middle" font-size="13px" width="144px" fill="#323232" font-weight="400" align="middle" lineHeight="125%" anchor="middle" family="微软雅黑" size="13px" weight="400" font-style="" opacity="1" y="15.375" transform="rotate(0)"><tspan id="SvgjsTspan1036" dy="16" x="82"><tspan id="SvgjsTspan1037" style="text-decoration:;">fastjson 2.0</tspan></tspan></text></g></g><g id="SvgjsG1038" transform="translate(42,331.5)"><path id="SvgjsPath1039" d="M 0 4Q 0 0 4 0L 226 0Q 230 0 230 4L 230 86Q 230 90 226 90L 4 90Q 0 90 0 86Z" stroke="rgba(33,41,48,1)" stroke-width="1" fill-opacity="1" fill="#ffffff"></path><path id="SvgjsPath1040" d="M 0 30L 230 30M 0 60L 230 60" stroke="rgba(33,41,48,1)" stroke-width="1" fill="none"></path><path id="SvgjsPath1041" d="M 0 0L 230 0L 230 90L 0 90Z" stroke="none" fill="none"></path><g id="SvgjsG1042"><text id="SvgjsText1043" font-family="微软雅黑" text-anchor="middle" font-size="13px" width="210px" fill="#323232" font-weight="700" align="middle" lineHeight="125%" anchor="middle" family="微软雅黑" size="13px" weight="700" font-style="" opacity="1" y="4.375" transform="rotate(0)"><tspan id="SvgjsTspan1044" dy="16" x="115"><tspan id="SvgjsTspan1045" style="text-decoration:;">ClassA</tspan></tspan></text></g><g id="SvgjsG1046"><text id="SvgjsText1047" font-family="微软雅黑" text-anchor="start" font-size="13px" width="210px" fill="#323232" font-weight="400" align="middle" lineHeight="125%" anchor="start" family="微软雅黑" size="13px" weight="400" font-style="" opacity="1" y="34.375" transform="rotate(0)"><tspan id="SvgjsTspan1048" dy="16" x="10"><tspan id="SvgjsTspan1049" style="text-decoration:;"> </tspan></tspan></text></g><g id="SvgjsG1050"><text id="SvgjsText1051" font-family="微软雅黑" text-anchor="start" font-size="13px" width="210px" fill="#323232" font-weight="400" align="middle" lineHeight="125%" anchor="start" family="微软雅黑" size="13px" weight="400" font-style="" opacity="1" y="64.375" transform="rotate(0)"><tspan id="SvgjsTspan1052" dy="16" x="10"><tspan id="SvgjsTspan1053" style="text-decoration:;">+ method1()</tspan></tspan></text></g></g><g id="SvgjsG1054" transform="translate(339,327)"><path id="SvgjsPath1055" d="M 0 4Q 0 0 4 0L 224 0Q 228 0 228 4L 228 95Q 228 99 224 99L 4 99Q 0 99 0 95Z" stroke="rgba(33,41,48,1)" stroke-width="1" fill-opacity="1" fill="#ffffff"></path><path id="SvgjsPath1056" d="M 0 30L 228 30M 0 60L 228 60" stroke="rgba(33,41,48,1)" stroke-width="1" fill="none"></path><path id="SvgjsPath1057" d="M 0 0L 228 0L 228 99L 0 99Z" stroke="none" fill="none"></path><g id="SvgjsG1058"><text id="SvgjsText1059" font-family="微软雅黑" text-anchor="middle" font-size="13px" width="208px" fill="#323232" font-weight="700" align="middle" lineHeight="125%" anchor="middle" family="微软雅黑" size="13px" weight="700" font-style="" opacity="1" y="4.375" transform="rotate(0)"><tspan id="SvgjsTspan1060" dy="16" x="114"><tspan id="SvgjsTspan1061" style="text-decoration:;">ClassA</tspan></tspan></text></g><g id="SvgjsG1062"><text id="SvgjsText1063" font-family="微软雅黑" text-anchor="start" font-size="13px" width="208px" fill="#323232" font-weight="400" align="middle" lineHeight="125%" anchor="start" family="微软雅黑" size="13px" weight="400" font-style="" opacity="1" y="34.375" transform="rotate(0)"><tspan id="SvgjsTspan1064" dy="16" x="10"><tspan id="SvgjsTspan1065" style="text-decoration:;"> </tspan></tspan></text></g><g id="SvgjsG1066"><text id="SvgjsText1067" font-family="微软雅黑" text-anchor="start" font-size="13px" width="208px" fill="#323232" font-weight="400" align="middle" lineHeight="125%" anchor="start" family="微软雅黑" size="13px" weight="400" font-style="" opacity="1" y="57.375" transform="rotate(0)"><tspan id="SvgjsTspan1068" dy="16" x="10"><tspan id="SvgjsTspan1069" style="text-decoration:;">+ method1()</tspan></tspan><tspan id="SvgjsTspan1070" dy="16" x="10"><tspan id="SvgjsTspan1071" style="text-decoration:;">+ method2()</tspan></tspan></text></g></g><g id="SvgjsG1072"><path id="SvgjsPath1073" d="M157 119.5L157 151L157 151L157 181.2" stroke="#323232" stroke-width="1" fill="none" marker-end="url(#SvgjsMarker1074)"></path></g><g id="SvgjsG1076"><path id="SvgjsPath1077" d="M157 235.5L157 283.25L157 283.25L157 329.70000000000005" stroke="#323232" stroke-width="1" fill="none" marker-end="url(#SvgjsMarker1078)"></path></g><g id="SvgjsG1080"><path id="SvgjsPath1081" d="M453 119.5L453 151L453 151L453 181.2" stroke="#323232" stroke-width="1" fill="none" marker-end="url(#SvgjsMarker1082)"></path></g><g id="SvgjsG1084"><path id="SvgjsPath1085" d="M453 235.5L453 281L453 281L453 325.20000000000005" stroke="#323232" stroke-width="1" fill="none" marker-end="url(#SvgjsMarker1086)"></path></g><g id="SvgjsG1088" transform="translate(153,137.5)"><path id="SvgjsPath1089" d="M 0 0L 66 0L 66 27L 0 27Z" stroke="none" fill="none"></path><g id="SvgjsG1090"><text id="SvgjsText1091" font-family="微软雅黑" text-anchor="middle" font-size="13px" width="66px" fill="#323232" font-weight="400" align="middle" lineHeight="125%" anchor="middle" family="微软雅黑" size="13px" weight="400" font-style="" opacity="1" y="2.875" transform="rotate(0)"><tspan id="SvgjsTspan1092" dy="16" x="33"><tspan id="SvgjsTspan1093" style="text-decoration:;">依赖</tspan></tspan></text></g></g><g id="SvgjsG1094" transform="translate(153,269.75)"><path id="SvgjsPath1095" d="M 0 0L 66 0L 66 27L 0 27Z" stroke="none" fill="none"></path><g id="SvgjsG1096"><text id="SvgjsText1097" font-family="微软雅黑" text-anchor="middle" font-size="13px" width="66px" fill="#323232" font-weight="400" align="middle" lineHeight="125%" anchor="middle" family="微软雅黑" size="13px" weight="400" font-style="" opacity="1" y="2.875" transform="rotate(0)"><tspan id="SvgjsTspan1098" dy="16" x="33"><tspan id="SvgjsTspan1099" style="text-decoration:;">调用</tspan></tspan></text></g></g><g id="SvgjsG1100" transform="translate(452,137.5)"><path id="SvgjsPath1101" d="M 0 0L 66 0L 66 27L 0 27Z" stroke="none" fill="none"></path><g id="SvgjsG1102"><text id="SvgjsText1103" font-family="微软雅黑" text-anchor="middle" font-size="13px" width="66px" fill="#323232" font-weight="400" align="middle" lineHeight="125%" anchor="middle" family="微软雅黑" size="13px" weight="400" font-style="" opacity="1" y="2.875" transform="rotate(0)"><tspan id="SvgjsTspan1104" dy="16" x="33"><tspan id="SvgjsTspan1105" style="text-decoration:;">依赖</tspan></tspan></text></g></g><g id="SvgjsG1106" transform="translate(452,269.75)"><path id="SvgjsPath1107" d="M 0 0L 66 0L 66 27L 0 27Z" stroke="none" fill="none"></path><g id="SvgjsG1108"><text id="SvgjsText1109" font-family="微软雅黑" text-anchor="middle" font-size="13px" width="66px" fill="#323232" font-weight="400" align="middle" lineHeight="125%" anchor="middle" family="微软雅黑" size="13px" weight="400" font-style="" opacity="1" y="2.875" transform="rotate(0)"><tspan id="SvgjsTspan1110" dy="16" x="33"><tspan id="SvgjsTspan1111" style="text-decoration:;">调用</tspan></tspan></text></g></g><g id="SvgjsG1112"><path id="SvgjsPath1113" d="M370.5 93L305 93L305 209L240.79999999999995 209" stroke-dasharray="8,5" stroke="#323232" stroke-width="1" fill="none" marker-end="url(#SvgjsMarker1114)"></path></g><g id="SvgjsG1116" transform="translate(239,55)"><path id="SvgjsPath1117" d="M 0 0L 146 0L 146 36L 0 36Z" stroke="none" fill="none"></path><g id="SvgjsG1118"><text id="SvgjsText1119" font-family="微软雅黑" text-anchor="middle" font-size="13px" width="146px" fill="#d32f2f" font-weight="400" align="middle" lineHeight="125%" anchor="middle" family="微软雅黑" size="13px" weight="400" font-style="" opacity="1" y="-1.125" transform="rotate(0)"><tspan id="SvgjsTspan1120" dy="16" x="73"><tspan id="SvgjsTspan1121" style="text-decoration:;">无法找到</tspan></tspan><tspan id="SvgjsTspan1122" dy="16" x="73"><tspan id="SvgjsTspan1123" style="text-decoration:;">ClassA#method2</tspan></tspan></text></g></g></svg>