<svg id="SvgjsSvg1006" width="1023" height="590" xmlns="http://www.w3.org/2000/svg" version="1.1" xmlns:xlink="http://www.w3.org/1999/xlink" xmlns:svgjs="http://svgjs.com/svgjs"><defs id="SvgjsDefs1007"><pattern patternUnits="userSpaceOnUse" id="pattern_mark_0" width="300" height="300"><text x="150" y="100" fill="rgba(229,229,229,0.8)" font-size="18" transform="rotate(-45, 150, 150)" style="dominant-baseline: middle; text-anchor: middle;"></text></pattern><pattern patternUnits="userSpaceOnUse" id="pattern_mark_1" width="300" height="300"><text x="150" y="200" fill="rgba(229,229,229,0.8)" font-size="18" transform="rotate(-45, 150, 150)" style="dominant-baseline: middle; text-anchor: middle;"></text></pattern><marker id="SvgjsMarker1019" markerWidth="12" markerHeight="8" refX="9" refY="4" viewBox="0 0 12 8" orient="auto" markerUnits="userSpaceOnUse" stroke-dasharray="0,0"><path id="SvgjsPath1020" d="M0,0 L12,4 L0,8 L0,0" fill="#323232" stroke="#323232" stroke-width="1"></path></marker><marker id="SvgjsMarker1092" markerWidth="12" markerHeight="8" refX="9" refY="4" viewBox="0 0 12 8" orient="auto" markerUnits="userSpaceOnUse" stroke-dasharray="0,0"><path id="SvgjsPath1093" d="M0,0 L12,4 L0,8 L0,0" fill="#323232" stroke="#323232" stroke-width="1"></path></marker><marker id="SvgjsMarker1096" markerWidth="12" markerHeight="8" refX="9" refY="4" viewBox="0 0 12 8" orient="auto" markerUnits="userSpaceOnUse" stroke-dasharray="0,0"><path id="SvgjsPath1097" d="M0,0 L12,4 L0,8 L0,0" fill="#323232" stroke="#323232" stroke-width="1"></path></marker><marker id="SvgjsMarker1100" markerWidth="12" markerHeight="8" refX="9" refY="4" viewBox="0 0 12 8" orient="auto" markerUnits="userSpaceOnUse" stroke-dasharray="0,0"><path id="SvgjsPath1101" d="M0,0 L12,4 L0,8 L0,0" fill="#323232" stroke="#323232" stroke-width="1"></path></marker><marker id="SvgjsMarker1104" markerWidth="12" markerHeight="8" refX="9" refY="4" viewBox="0 0 12 8" orient="auto" markerUnits="userSpaceOnUse" stroke-dasharray="0,0"><path id="SvgjsPath1105" d="M0,0 L12,4 L0,8 L0,0" fill="#323232" stroke="#323232" stroke-width="1"></path></marker><marker id="SvgjsMarker1108" markerWidth="12" markerHeight="8" refX="9" refY="4" viewBox="0 0 12 8" orient="auto" markerUnits="userSpaceOnUse" stroke-dasharray="0,0"><path id="SvgjsPath1109" d="M0,0 L12,4 L0,8 L0,0" fill="#323232" stroke="#323232" stroke-width="1"></path></marker><marker id="SvgjsMarker1118" markerWidth="12" markerHeight="8" refX="9" refY="4" viewBox="0 0 12 8" orient="auto" markerUnits="userSpaceOnUse" stroke-dasharray="0,0"><path id="SvgjsPath1119" d="M0,0 L12,4 L0,8 L0,0" fill="#323232" stroke="#323232" stroke-width="1"></path></marker><marker id="SvgjsMarker1179" markerWidth="12" markerHeight="8" refX="9" refY="4" viewBox="0 0 12 8" orient="auto" markerUnits="userSpaceOnUse" stroke-dasharray="0,0"><path id="SvgjsPath1180" d="M0,0 L12,4 L0,8 L0,0" fill="#323232" stroke="#323232" stroke-width="1"></path></marker><marker id="SvgjsMarker1183" markerWidth="12" markerHeight="8" refX="9" refY="4" viewBox="0 0 12 8" orient="auto" markerUnits="userSpaceOnUse" stroke-dasharray="0,0"><path id="SvgjsPath1184" d="M0,0 L12,4 L0,8 L0,0" fill="#323232" stroke="#323232" stroke-width="1"></path></marker><marker id="SvgjsMarker1187" markerWidth="12" markerHeight="8" refX="9" refY="4" viewBox="0 0 12 8" orient="auto" markerUnits="userSpaceOnUse" stroke-dasharray="0,0"><path id="SvgjsPath1188" d="M0,0 L12,4 L0,8 L0,0" fill="#323232" stroke="#323232" stroke-width="1"></path></marker><marker id="SvgjsMarker1191" markerWidth="12" markerHeight="8" refX="9" refY="4" viewBox="0 0 12 8" orient="auto" markerUnits="userSpaceOnUse" stroke-dasharray="0,0"><path id="SvgjsPath1192" d="M0,0 L12,4 L0,8 L0,0" fill="#323232" stroke="#323232" stroke-width="1"></path></marker><marker id="SvgjsMarker1195" markerWidth="12" markerHeight="8" refX="9" refY="4" viewBox="0 0 12 8" orient="auto" markerUnits="userSpaceOnUse" stroke-dasharray="0,0"><path id="SvgjsPath1196" d="M0,0 L12,4 L0,8 L0,0" fill="#323232" stroke="#323232" stroke-width="1"></path></marker><marker id="SvgjsMarker1217" markerWidth="12" markerHeight="8" refX="9" refY="4" viewBox="0 0 12 8" orient="auto" markerUnits="userSpaceOnUse" stroke-dasharray="0,0"><path id="SvgjsPath1218" d="M0,0 L12,4 L0,8 L0,0" fill="#323232" stroke="#323232" stroke-width="1"></path></marker><marker id="SvgjsMarker1221" markerWidth="12" markerHeight="8" refX="9" refY="4" viewBox="0 0 12 8" orient="auto" markerUnits="userSpaceOnUse" stroke-dasharray="0,0"><path id="SvgjsPath1222" d="M0,0 L12,4 L0,8 L0,0" fill="#323232" stroke="#323232" stroke-width="1"></path></marker><marker id="SvgjsMarker1225" markerWidth="12" markerHeight="8" refX="9" refY="4" viewBox="0 0 12 8" orient="auto" markerUnits="userSpaceOnUse" stroke-dasharray="0,0"><path id="SvgjsPath1226" d="M0,0 L12,4 L0,8 L0,0" fill="#323232" stroke="#323232" stroke-width="1"></path></marker><marker id="SvgjsMarker1229" markerWidth="12" markerHeight="8" refX="9" refY="4" viewBox="0 0 12 8" orient="auto" markerUnits="userSpaceOnUse" stroke-dasharray="0,0"><path id="SvgjsPath1230" d="M0,0 L12,4 L0,8 L0,0" fill="#323232" stroke="#323232" stroke-width="1"></path></marker><marker id="SvgjsMarker1269" markerWidth="12" markerHeight="8" refX="9" refY="4" viewBox="0 0 12 8" orient="auto" markerUnits="userSpaceOnUse" stroke-dasharray="0,0"><path id="SvgjsPath1270" d="M0,0 L12,4 L0,8 L0,0" fill="#323232" stroke="#323232" stroke-width="1"></path></marker><marker id="SvgjsMarker1273" markerWidth="12" markerHeight="8" refX="9" refY="4" viewBox="0 0 12 8" orient="auto" markerUnits="userSpaceOnUse" stroke-dasharray="0,0"><path id="SvgjsPath1274" d="M0,0 L12,4 L0,8 L0,0" fill="#323232" stroke="#323232" stroke-width="1"></path></marker><marker id="SvgjsMarker1277" markerWidth="12" markerHeight="8" refX="9" refY="4" viewBox="0 0 12 8" orient="auto" markerUnits="userSpaceOnUse" stroke-dasharray="0,0"><path id="SvgjsPath1278" d="M0,0 L12,4 L0,8 L0,0" fill="#323232" stroke="#323232" stroke-width="1"></path></marker></defs><rect id="svgbackgroundid" width="1023" height="590" fill="transparent"></rect><rect id="SvgjsRect1009" width="1023" height="590" fill="url(#pattern_mark_0)"></rect><rect id="SvgjsRect1010" width="1023" height="590" fill="url(#pattern_mark_1)"></rect><g id="SvgjsG1011" transform="translate(423,76.125)"><path id="SvgjsPath1012" d="M 0 0L 575 0L 575 437.75L 0 437.75Z" stroke="rgba(33,41,48,1)" stroke-width="1" fill-opacity="1" fill="#ffffff"></path><g id="SvgjsG1013"><text id="SvgjsText1014" font-family="微软雅黑" text-anchor="middle" font-size="13px" width="555px" fill="#323232" font-weight="400" align="bottom" lineHeight="200%" anchor="middle" family="微软雅黑" size="13px" weight="400" font-style="" opacity="1" y="404.25" transform="rotate(0)"><tspan id="SvgjsTspan1015" dy="26" x="287.5"><tspan id="SvgjsTspan1016" style="text-decoration:;">基于JDWP协议热加载流程</tspan></tspan></text></g></g><g id="SvgjsG1017"><path id="SvgjsPath1018" d="M513.5 144.375L513.5 164.5L513.5 164.5L513.5 183.325" stroke="#323232" stroke-width="1" fill="none" marker-end="url(#SvgjsMarker1019)"></path></g><g id="SvgjsG1021" transform="translate(210,25)"><path id="SvgjsPath1022" d="M 0 0L 165 0L 165 540L 0 540Z" stroke="rgba(33,41,48,1)" stroke-width="1" fill="none"></path><path id="SvgjsPath1023" d="M 0 0L 165 0L 165 40L 0 40Z" stroke="rgba(33,41,48,1)" stroke-width="1" fill-opacity="1" fill="#ffffff"></path><g id="SvgjsG1024"><text id="SvgjsText1025" font-family="微软雅黑" text-anchor="middle" font-size="16px" width="145px" fill="#323232" font-weight="400" align="middle" lineHeight="125%" anchor="middle" family="微软雅黑" size="16px" weight="400" font-style="" opacity="1" y="6" transform="rotate(0)"><tspan id="SvgjsTspan1026" dy="20" x="82.5"><tspan id="SvgjsTspan1027" style="text-decoration:;">命令工具</tspan></tspan></text></g></g><g id="SvgjsG1028" transform="translate(45,145)"><path id="SvgjsPath1029" d="M 0 0L 96 0L 96 39L 0 39Z" stroke="rgba(33,41,48,1)" stroke-width="1" fill-opacity="1" fill="#ffffff"></path><g id="SvgjsG1030"><text id="SvgjsText1031" font-family="微软雅黑" text-anchor="middle" font-size="13px" width="76px" fill="#323232" font-weight="400" align="middle" lineHeight="125%" anchor="middle" family="微软雅黑" size="13px" weight="400" font-style="" opacity="1" y="8.875" transform="rotate(0)"><tspan id="SvgjsTspan1032" dy="16" x="48"><tspan id="SvgjsTspan1033" style="text-decoration:;">配置信息</tspan></tspan></text></g></g><g id="SvgjsG1034" transform="translate(25,99)"><path id="SvgjsPath1035" d="M 0 0L 136 0L 136 40L 0 40Z" stroke="none" fill="none"></path><g id="SvgjsG1036"><text id="SvgjsText1037" font-family="微软雅黑" text-anchor="middle" font-size="13px" width="136px" fill="#323232" font-weight="400" align="middle" lineHeight="125%" anchor="middle" family="微软雅黑" size="13px" weight="400" font-style="" opacity="1" y="0.875" transform="rotate(0)"><tspan id="SvgjsTspan1038" dy="16" x="68"><tspan id="SvgjsTspan1039" style="text-decoration:;">部署分支</tspan></tspan><tspan id="SvgjsTspan1040" dy="16" x="68"><tspan id="SvgjsTspan1041" style="text-decoration:;font-size: inherit;">JVM远程debug信息</tspan></tspan></text></g></g><g id="SvgjsG1042" transform="translate(228.5,213.5)"><path id="SvgjsPath1043" d="M 0 0L 105 0L 105 39L 0 39Z" stroke="rgba(33,41,48,1)" stroke-width="1" fill-opacity="1" fill="#ffffff"></path><g id="SvgjsG1044"><text id="SvgjsText1045" font-family="微软雅黑" text-anchor="middle" font-size="13px" width="85px" fill="#323232" font-weight="400" align="middle" lineHeight="125%" anchor="middle" family="微软雅黑" size="13px" weight="400" font-style="" opacity="1" y="8.875" transform="rotate(0)"><tspan id="SvgjsTspan1046" dy="16" x="52.5"><tspan id="SvgjsTspan1047" style="text-decoration:;">模块文件监听</tspan></tspan></text></g></g><g id="SvgjsG1048" transform="translate(228.5,338.75)"><path id="SvgjsPath1049" d="M 0 0L 105 0L 105 39L 0 39Z" stroke="rgba(33,41,48,1)" stroke-width="1" fill-opacity="1" fill="#ffffff"></path><g id="SvgjsG1050"><text id="SvgjsText1051" font-family="微软雅黑" text-anchor="middle" font-size="13px" width="85px" fill="#323232" font-weight="400" align="middle" lineHeight="125%" anchor="middle" family="微软雅黑" size="13px" weight="400" font-style="" opacity="1" y="8.875" transform="rotate(0)"><tspan id="SvgjsTspan1052" dy="16" x="52.5"><tspan id="SvgjsTspan1053" style="text-decoration:;">修改文件列表</tspan></tspan></text></g></g><g id="SvgjsG1054" transform="translate(667,96.375)"><path id="SvgjsPath1055" d="M 0 0L 125 0L 125 39L 0 39Z" stroke="rgba(33,41,48,1)" stroke-width="1" fill-opacity="1" fill="#ffffff"></path><g id="SvgjsG1056"><text id="SvgjsText1057" font-family="微软雅黑" text-anchor="middle" font-size="13px" width="105px" fill="#323232" font-weight="400" align="middle" lineHeight="125%" anchor="middle" family="微软雅黑" size="13px" weight="400" font-style="" opacity="1" y="8.875" transform="rotate(0)"><tspan id="SvgjsTspan1058" dy="16" x="62.5"><tspan id="SvgjsTspan1059" style="text-decoration:;">开发分支commit</tspan></tspan></text></g></g><g id="SvgjsG1060" transform="translate(839.5,96.375)"><path id="SvgjsPath1061" d="M 0 0L 136 0L 136 39L 0 39Z" stroke="rgba(33,41,48,1)" stroke-width="1" fill-opacity="1" fill="#ffffff"></path><g id="SvgjsG1062"><text id="SvgjsText1063" font-family="微软雅黑" text-anchor="middle" font-size="13px" width="116px" fill="#323232" font-weight="400" align="middle" lineHeight="125%" anchor="middle" family="微软雅黑" size="13px" weight="400" font-style="" opacity="1" y="8.875" transform="rotate(0)"><tspan id="SvgjsTspan1064" dy="16" x="68"><tspan id="SvgjsTspan1065" style="text-decoration:;">切换&amp;拉取部署分支</tspan></tspan></text></g></g><g id="SvgjsG1066" transform="translate(845,185.125)"><path id="SvgjsPath1067" d="M 0 0L 125 0L 125 39L 0 39Z" stroke="rgba(33,41,48,1)" stroke-width="1" fill-opacity="1" fill="#ffffff"></path><g id="SvgjsG1068"><text id="SvgjsText1069" font-family="微软雅黑" text-anchor="middle" font-size="13px" width="105px" fill="#323232" font-weight="400" align="middle" lineHeight="125%" anchor="middle" family="微软雅黑" size="13px" weight="400" font-style="" opacity="1" y="8.875" transform="rotate(0)"><tspan id="SvgjsTspan1070" dy="16" x="62.5"><tspan id="SvgjsTspan1071" style="text-decoration:;">合并开发分支</tspan></tspan></text></g></g><g id="SvgjsG1072" transform="translate(228.5,464)"><path id="SvgjsPath1073" d="M 0 0L 105 0L 105 39L 0 39Z" stroke="rgba(33,41,48,1)" stroke-width="1" fill-opacity="1" fill="#ffffff"></path><g id="SvgjsG1074"><text id="SvgjsText1075" font-family="微软雅黑" text-anchor="middle" font-size="13px" width="85px" fill="#323232" font-weight="400" align="middle" lineHeight="125%" anchor="middle" family="微软雅黑" size="13px" weight="400" font-style="" opacity="1" y="8.875" transform="rotate(0)"><tspan id="SvgjsTspan1076" dy="16" x="52.5"><tspan id="SvgjsTspan1077" style="text-decoration:;">热加载</tspan></tspan></text></g></g><g id="SvgjsG1078" transform="translate(228.5,88.25)"><path id="SvgjsPath1079" d="M 0 0L 105 0L 105 39L 0 39Z" stroke="rgba(33,41,48,1)" stroke-width="1" fill-opacity="1" fill="#ffffff"></path><g id="SvgjsG1080"><text id="SvgjsText1081" font-family="微软雅黑" text-anchor="middle" font-size="13px" width="85px" fill="#323232" font-weight="400" align="middle" lineHeight="125%" anchor="middle" family="微软雅黑" size="13px" weight="400" font-style="" opacity="1" y="8.875" transform="rotate(0)"><tspan id="SvgjsTspan1082" dy="16" x="52.5"><tspan id="SvgjsTspan1083" style="text-decoration:;">命令行启动</tspan></tspan></text></g></g><g id="SvgjsG1084" transform="translate(45,213.5)"><path id="SvgjsPath1085" d="M 0 0L 96 0L 96 39L 0 39Z" stroke="rgba(33,41,48,1)" stroke-width="1" fill-opacity="1" fill="#ffffff"></path><g id="SvgjsG1086"><text id="SvgjsText1087" font-family="微软雅黑" text-anchor="middle" font-size="13px" width="76px" fill="#323232" font-weight="400" align="middle" lineHeight="125%" anchor="middle" family="微软雅黑" size="13px" weight="400" font-style="" opacity="1" y="8.875" transform="rotate(0)"><tspan id="SvgjsTspan1088" dy="16" x="48"><tspan id="SvgjsTspan1089" style="text-decoration:;">需求开发</tspan></tspan></text></g></g><g id="SvgjsG1090"><path id="SvgjsPath1091" d="M281 127.75L281 170.375L281 170.375L281 211.7" stroke="#323232" stroke-width="1" fill="none" marker-end="url(#SvgjsMarker1092)"></path></g><g id="SvgjsG1094"><path id="SvgjsPath1095" d="M281 253L281 295.625L281 295.625L281 336.95" stroke="#323232" stroke-width="1" fill="none" marker-end="url(#SvgjsMarker1096)"></path></g><g id="SvgjsG1098"><path id="SvgjsPath1099" d="M281 378.25L281 420.875L281 420.875L281 462.2" stroke="#323232" stroke-width="1" fill="none" marker-end="url(#SvgjsMarker1100)"></path></g><g id="SvgjsG1102"><path id="SvgjsPath1103" d="M141.5 164.5L207 164.5L207 164.5L273 164.5" stroke-dasharray="8,5" stroke="#323232" stroke-width="1" fill="none" marker-end="url(#SvgjsMarker1104)"></path></g><g id="SvgjsG1106"><path id="SvgjsPath1107" d="M141.5 233L184.75 233L184.75 233L226.7 233" stroke-dasharray="8,5" stroke="#323232" stroke-width="1" fill="none" marker-end="url(#SvgjsMarker1108)"></path></g><g id="SvgjsG1110" transform="translate(45,404.5)"><path id="SvgjsPath1111" d="M 0 0L 96 0L 96 39L 0 39Z" stroke="rgba(33,41,48,1)" stroke-width="1" fill-opacity="1" fill="#ffffff"></path><g id="SvgjsG1112"><text id="SvgjsText1113" font-family="微软雅黑" text-anchor="middle" font-size="13px" width="76px" fill="#323232" font-weight="400" align="middle" lineHeight="125%" anchor="middle" family="微软雅黑" size="13px" weight="400" font-style="" opacity="1" y="8.875" transform="rotate(0)"><tspan id="SvgjsTspan1114" dy="16" x="48"><tspan id="SvgjsTspan1115" style="text-decoration:;">热部署</tspan></tspan></text></g></g><g id="SvgjsG1116"><path id="SvgjsPath1117" d="M141.5 424L208 424L208 424L275 424" stroke-dasharray="8,5" stroke="#323232" stroke-width="1" fill="none" marker-end="url(#SvgjsMarker1118)"></path></g><g id="SvgjsG1120" transform="translate(137,139.875)"><path id="SvgjsPath1121" d="M 0 0L 76 0L 76 24.5L 0 24.5Z" stroke="none" fill="none"></path><g id="SvgjsG1122"><text id="SvgjsText1123" font-family="微软雅黑" text-anchor="middle" font-size="13px" width="76px" fill="#323232" font-weight="700" align="middle" lineHeight="125%" anchor="middle" family="微软雅黑" size="13px" weight="700" font-style="" opacity="1" y="1.625" transform="rotate(0)"><tspan id="SvgjsTspan1124" dy="16" x="38"><tspan id="SvgjsTspan1125" style="text-decoration:;">config</tspan></tspan></text></g></g><g id="SvgjsG1126" transform="translate(141,399.875)"><path id="SvgjsPath1127" d="M 0 0L 76 0L 76 24.5L 0 24.5Z" stroke="none" fill="none"></path><g id="SvgjsG1128"><text id="SvgjsText1129" font-family="微软雅黑" text-anchor="middle" font-size="13px" width="76px" fill="#323232" font-weight="700" align="middle" lineHeight="125%" anchor="middle" family="微软雅黑" size="13px" weight="700" font-style="" opacity="1" y="1.625" transform="rotate(0)"><tspan id="SvgjsTspan1130" dy="16" x="38"><tspan id="SvgjsTspan1131" style="text-decoration:;">reload</tspan></tspan></text></g></g><g id="SvgjsG1132" transform="translate(283.5,288.5)"><path id="SvgjsPath1133" d="M 0 0L 44 0L 44 24.5L 0 24.5Z" stroke="none" fill="none"></path><g id="SvgjsG1134"><text id="SvgjsText1135" font-family="微软雅黑" text-anchor="middle" font-size="13px" width="44px" fill="#323232" font-weight="700" align="middle" lineHeight="125%" anchor="middle" family="微软雅黑" size="13px" weight="700" font-style="" opacity="1" y="1.625" transform="rotate(0)"><tspan id="SvgjsTspan1136" dy="16" x="22"><tspan id="SvgjsTspan1137" style="text-decoration:;">添加</tspan></tspan></text></g></g><g id="SvgjsG1138" transform="translate(25,25)"><path id="SvgjsPath1139" d="M 0 0L 185 0L 185 540L 0 540Z" stroke="rgba(33,41,48,1)" stroke-width="1" fill="none"></path><path id="SvgjsPath1140" d="M 0 0L 185 0L 185 40L 0 40Z" stroke="rgba(33,41,48,1)" stroke-width="1" fill-opacity="1" fill="#ffffff"></path><g id="SvgjsG1141"><text id="SvgjsText1142" font-family="微软雅黑" text-anchor="middle" font-size="16px" width="165px" fill="#323232" font-weight="400" align="middle" lineHeight="125%" anchor="middle" family="微软雅黑" size="16px" weight="400" font-style="" opacity="1" y="6" transform="rotate(0)"><tspan id="SvgjsTspan1143" dy="20" x="92.5"><tspan id="SvgjsTspan1144" style="text-decoration:;">开发者</tspan></tspan></text></g></g><g id="SvgjsG1145" transform="translate(438,87.875)"><path id="SvgjsPath1146" d="M 0 28L 75.5 0L 151 28L 75.5 56L 0 28Z" stroke="rgba(33,41,48,1)" stroke-width="1" fill-opacity="1" fill="#ffffff"></path><g id="SvgjsG1147"><text id="SvgjsText1148" font-family="微软雅黑" text-anchor="middle" font-size="12px" width="131px" fill="#323232" font-weight="400" align="middle" lineHeight="125%" anchor="middle" family="微软雅黑" size="12px" weight="400" font-style="" opacity="1" y="18" transform="rotate(0)"><tspan id="SvgjsTspan1149" dy="15" x="75.5"><tspan id="SvgjsTspan1150" style="text-decoration:;">部署与开发分支相同</tspan></tspan></text></g></g><g id="SvgjsG1151" transform="translate(451,185.125)"><path id="SvgjsPath1152" d="M 0 0L 125 0L 125 39L 0 39Z" stroke="rgba(33,41,48,1)" stroke-width="1" fill-opacity="1" fill="#ffffff"></path><g id="SvgjsG1153"><text id="SvgjsText1154" font-family="微软雅黑" text-anchor="middle" font-size="13px" width="105px" fill="#323232" font-weight="400" align="middle" lineHeight="125%" anchor="middle" family="微软雅黑" size="13px" weight="400" font-style="" opacity="1" y="8.875" transform="rotate(0)"><tspan id="SvgjsTspan1155" dy="16" x="62.5"><tspan id="SvgjsTspan1156" style="text-decoration:;">编译</tspan></tspan></text></g></g><g id="SvgjsG1157" transform="translate(451,264.875)"><path id="SvgjsPath1158" d="M 0 0L 125 0L 125 39L 0 39Z" stroke="rgba(33,41,48,1)" stroke-width="1" fill-opacity="1" fill="#ffffff"></path><g id="SvgjsG1159"><text id="SvgjsText1160" font-family="微软雅黑" text-anchor="middle" font-size="13px" width="105px" fill="#323232" font-weight="400" align="middle" lineHeight="125%" anchor="middle" family="微软雅黑" size="13px" weight="400" font-style="" opacity="1" y="8.875" transform="rotate(0)"><tspan id="SvgjsTspan1161" dy="16" x="62.5"><tspan id="SvgjsTspan1162" style="text-decoration:;">连接远程JVM</tspan></tspan></text></g></g><g id="SvgjsG1163" transform="translate(451,344.625)"><path id="SvgjsPath1164" d="M 0 0L 125 0L 125 39L 0 39Z" stroke="rgba(33,41,48,1)" stroke-width="1" fill-opacity="1" fill="#ffffff"></path><g id="SvgjsG1165"><text id="SvgjsText1166" font-family="微软雅黑" text-anchor="middle" font-size="13px" width="105px" fill="#323232" font-weight="400" align="middle" lineHeight="125%" anchor="middle" family="微软雅黑" size="13px" weight="400" font-style="" opacity="1" y="0.375" transform="rotate(0)"><tspan id="SvgjsTspan1167" dy="16" x="62.5"><tspan id="SvgjsTspan1168" style="text-decoration:;">构建命令</tspan></tspan><tspan id="SvgjsTspan1169" dy="16" x="62.5"><tspan id="SvgjsTspan1170" style="text-decoration:;">RedefineClasses</tspan></tspan></text></g></g><g id="SvgjsG1171" transform="translate(451,424.375)"><path id="SvgjsPath1172" d="M 0 0L 125 0L 125 39L 0 39Z" stroke="rgba(33,41,48,1)" stroke-width="1" fill-opacity="1" fill="#ffffff"></path><g id="SvgjsG1173"><text id="SvgjsText1174" font-family="微软雅黑" text-anchor="middle" font-size="13px" width="105px" fill="#323232" font-weight="400" align="middle" lineHeight="125%" anchor="middle" family="微软雅黑" size="13px" weight="400" font-style="" opacity="1" y="8.875" transform="rotate(0)"><tspan id="SvgjsTspan1175" dy="16" x="62.5"><tspan id="SvgjsTspan1176" style="text-decoration:;">执行热加载</tspan></tspan></text></g></g><g id="SvgjsG1177"><path id="SvgjsPath1178" d="M589.5 115.875L628 115.875L628 115.875L665.2 115.875" stroke="#323232" stroke-width="1" fill="none" marker-end="url(#SvgjsMarker1179)"></path></g><g id="SvgjsG1181"><path id="SvgjsPath1182" d="M792.5 115.875L815.75 115.875L815.75 115.875L837.7 115.875" stroke="#323232" stroke-width="1" fill="none" marker-end="url(#SvgjsMarker1183)"></path></g><g id="SvgjsG1185"><path id="SvgjsPath1186" d="M513.5 224.625L513.5 244.5L513.5 244.5L513.5 263.075" stroke="#323232" stroke-width="1" fill="none" marker-end="url(#SvgjsMarker1187)"></path></g><g id="SvgjsG1189"><path id="SvgjsPath1190" d="M513.5 304.375L513.5 324.25L513.5 324.25L513.5 342.825" stroke="#323232" stroke-width="1" fill="none" marker-end="url(#SvgjsMarker1191)"></path></g><g id="SvgjsG1193"><path id="SvgjsPath1194" d="M513.5 384.125L513.5 404L513.5 404L513.5 422.575" stroke="#323232" stroke-width="1" fill="none" marker-end="url(#SvgjsMarker1195)"></path></g><g id="SvgjsG1197" transform="translate(635,415.875)"><path id="SvgjsPath1198" d="M 0 28L 75.5 0L 151 28L 75.5 56L 0 28Z" stroke="rgba(33,41,48,1)" stroke-width="1" fill-opacity="1" fill="#ffffff"></path><g id="SvgjsG1199"><text id="SvgjsText1200" font-family="微软雅黑" text-anchor="middle" font-size="12px" width="131px" fill="#323232" font-weight="400" align="middle" lineHeight="125%" anchor="middle" family="微软雅黑" size="12px" weight="400" font-style="" opacity="1" y="18" transform="rotate(0)"><tspan id="SvgjsTspan1201" dy="15" x="75.5"><tspan id="SvgjsTspan1202" style="text-decoration:;">是否合并分支</tspan></tspan></text></g></g><g id="SvgjsG1203" transform="translate(648,344.625)"><path id="SvgjsPath1204" d="M 0 0L 125 0L 125 39L 0 39Z" stroke="rgba(33,41,48,1)" stroke-width="1" fill-opacity="1" fill="#ffffff"></path><g id="SvgjsG1205"><text id="SvgjsText1206" font-family="微软雅黑" text-anchor="middle" font-size="13px" width="105px" fill="#323232" font-weight="400" align="middle" lineHeight="125%" anchor="middle" family="微软雅黑" size="13px" weight="400" font-style="" opacity="1" y="8.875" transform="rotate(0)"><tspan id="SvgjsTspan1207" dy="16" x="62.5"><tspan id="SvgjsTspan1208" style="text-decoration:;">回滚开发分支</tspan></tspan></text></g></g><g id="SvgjsG1209" transform="translate(863,424.375)"><path id="SvgjsPath1210" d="M 0 0L 125 0L 125 39L 0 39Z" stroke="rgba(33,41,48,1)" stroke-width="1" fill-opacity="1" fill="#ffffff"></path><g id="SvgjsG1211"><text id="SvgjsText1212" font-family="微软雅黑" text-anchor="middle" font-size="13px" width="105px" fill="#323232" font-weight="400" align="middle" lineHeight="125%" anchor="middle" family="微软雅黑" size="13px" weight="400" font-style="" opacity="1" y="8.875" transform="rotate(0)"><tspan id="SvgjsTspan1213" dy="16" x="62.5"><tspan id="SvgjsTspan1214" style="text-decoration:;">热加载结束</tspan></tspan></text></g></g><g id="SvgjsG1215"><path id="SvgjsPath1216" d="M576.5 443.875L605.5 443.875L605.5 443.875L633.2 443.875" stroke="#323232" stroke-width="1" fill="none" marker-end="url(#SvgjsMarker1217)"></path></g><g id="SvgjsG1219"><path id="SvgjsPath1220" d="M710.5 415.375L710.5 399.75L710.5 399.75L710.5 385.425" stroke="#323232" stroke-width="1" fill="none" marker-end="url(#SvgjsMarker1221)"></path></g><g id="SvgjsG1223"><path id="SvgjsPath1224" d="M773.5 364.125L925.5 364.125L925.5 422.575" stroke="#323232" stroke-width="1" fill="none" marker-end="url(#SvgjsMarker1225)"></path></g><g id="SvgjsG1227"><path id="SvgjsPath1228" d="M786.5 443.875L824.5 443.875L824.5 443.875L861.2 443.875" stroke="#323232" stroke-width="1" fill="none" marker-end="url(#SvgjsMarker1229)"></path></g><g id="SvgjsG1231" transform="translate(515,149.875)"><path id="SvgjsPath1232" d="M 0 0L 27 0L 27 20.5L 0 20.5Z" stroke="none" fill="none"></path><g id="SvgjsG1233"><text id="SvgjsText1234" font-family="微软雅黑" text-anchor="middle" font-size="13px" width="27px" fill="#323232" font-weight="400" align="middle" lineHeight="125%" anchor="middle" family="微软雅黑" size="13px" weight="400" font-style="" opacity="1" y="-0.375" transform="rotate(0)"><tspan id="SvgjsTspan1235" dy="16" x="13.5"><tspan id="SvgjsTspan1236" style="text-decoration:;">是</tspan></tspan></text></g></g><g id="SvgjsG1237" transform="translate(614.5,96.375)"><path id="SvgjsPath1238" d="M 0 0L 27 0L 27 20.5L 0 20.5Z" stroke="none" fill="none"></path><g id="SvgjsG1239"><text id="SvgjsText1240" font-family="微软雅黑" text-anchor="middle" font-size="13px" width="27px" fill="#323232" font-weight="400" align="middle" lineHeight="125%" anchor="middle" family="微软雅黑" size="13px" weight="400" font-style="" opacity="1" y="-0.375" transform="rotate(0)"><tspan id="SvgjsTspan1241" dy="16" x="13.5"><tspan id="SvgjsTspan1242" style="text-decoration:;">否</tspan></tspan></text></g></g><g id="SvgjsG1243" transform="translate(711.5,394.375)"><path id="SvgjsPath1244" d="M 0 0L 27 0L 27 20.5L 0 20.5Z" stroke="none" fill="none"></path><g id="SvgjsG1245"><text id="SvgjsText1246" font-family="微软雅黑" text-anchor="middle" font-size="13px" width="27px" fill="#323232" font-weight="400" align="middle" lineHeight="125%" anchor="middle" family="微软雅黑" size="13px" weight="400" font-style="" opacity="1" y="-0.375" transform="rotate(0)"><tspan id="SvgjsTspan1247" dy="16" x="13.5"><tspan id="SvgjsTspan1248" style="text-decoration:;">是</tspan></tspan></text></g></g><g id="SvgjsG1249" transform="translate(811,424.375)"><path id="SvgjsPath1250" d="M 0 0L 27 0L 27 20.5L 0 20.5Z" stroke="none" fill="none"></path><g id="SvgjsG1251"><text id="SvgjsText1252" font-family="微软雅黑" text-anchor="middle" font-size="13px" width="27px" fill="#323232" font-weight="400" align="middle" lineHeight="125%" anchor="middle" family="微软雅黑" size="13px" weight="400" font-style="" opacity="1" y="-0.375" transform="rotate(0)"><tspan id="SvgjsTspan1253" dy="16" x="13.5"><tspan id="SvgjsTspan1254" style="text-decoration:;">否</tspan></tspan></text></g></g><g id="SvgjsG1255" transform="translate(515,234.25)"><path id="SvgjsPath1256" d="M 0 0L 66 0L 66 20.5L 0 20.5Z" stroke="none" fill="none"></path><g id="SvgjsG1257"><text id="SvgjsText1258" font-family="微软雅黑" text-anchor="middle" font-size="13px" width="66px" fill="#323232" font-weight="400" align="middle" lineHeight="125%" anchor="middle" family="微软雅黑" size="13px" weight="400" font-style="" opacity="1" y="-0.375" transform="rotate(0)"><tspan id="SvgjsTspan1259" dy="16" x="33"><tspan id="SvgjsTspan1260" style="text-decoration:;">JDWP握手</tspan></tspan></text></g></g><g id="SvgjsG1261" transform="translate(515,314)"><path id="SvgjsPath1262" d="M 0 0L 174 0L 174 20.5L 0 20.5Z" stroke="none" fill="none"></path><g id="SvgjsG1263"><text id="SvgjsText1264" font-family="微软雅黑" text-anchor="middle" font-size="13px" width="174px" fill="#323232" font-weight="400" align="middle" lineHeight="125%" anchor="middle" family="微软雅黑" size="13px" weight="400" font-style="" opacity="1" y="-0.375" transform="rotate(0)"><tspan id="SvgjsTspan1265" dy="16" x="87"><tspan id="SvgjsTspan1266" style="text-decoration:;">JDWP RedefineClasses命令</tspan></tspan></text></g></g><g id="SvgjsG1267"><path id="SvgjsPath1268" d="M907.5 135.875L907.5 160.25L907.5 160.25L907.5 183.325" stroke="#323232" stroke-width="1" fill="none" marker-end="url(#SvgjsMarker1269)"></path></g><g id="SvgjsG1271"><path id="SvgjsPath1272" d="M844.5 204.625L710.5 204.625L710.5 204.625L577.8 204.625" stroke="#323232" stroke-width="1" fill="none" marker-end="url(#SvgjsMarker1273)"></path></g><g id="SvgjsG1275"><path id="SvgjsPath1276" d="M334 483.5L396.75 483.5L396.75 115.875L436.20000000000005 115.875" stroke="#323232" stroke-width="1" fill="none" marker-end="url(#SvgjsMarker1277)"></path></g></svg>